<svg xmlns="http://www.w3.org/2000/svg" xmlns:xlink="http://www.w3.org/1999/xlink" viewBox="0 0 1080 1080" width="1080" height="1080" preserveAspectRatio="xMidYMid meet" style="width: 100%; height: 100%; transform: translate3d(0px, 0px, 0px); content-visibility: visible;"><defs><clipPath id="__lottie_element_665"><rect width="1080" height="1080" x="0" y="0"/></clipPath><clipPath id="__lottie_element_683"><path d="M0,0 L1080,0 L1080,1080 L0,1080z"/></clipPath><clipPath id="__lottie_element_687"><path d="M0,0 L1080,0 L1080,1080 L0,1080z"/></clipPath><clipPath id="__lottie_element_694"><path d="M0,0 L1080,0 L1080,1080 L0,1080z"/></clipPath><clipPath id="__lottie_element_701"><path d="M0,0 L1080,0 L1080,1080 L0,1080z"/></clipPath><clipPath id="__lottie_element_708"><path d="M0,0 L1080,0 L1080,1080 L0,1080z"/></clipPath><clipPath id="__lottie_element_715"><path d="M0,0 L1080,0 L1080,1080 L0,1080z"/></clipPath><clipPath id="__lottie_element_722"><path d="M0,0 L1080,0 L1080,1080 L0,1080z"/></clipPath><clipPath id="__lottie_element_729"><path d="M0,0 L1080,0 L1080,1080 L0,1080z"/></clipPath><clipPath id="__lottie_element_736"><path d="M0,0 L1080,0 L1080,1080 L0,1080z"/></clipPath><clipPath id="__lottie_element_743"><path d="M0,0 L1080,0 L1080,1080 L0,1080z"/></clipPath><clipPath id="__lottie_element_750"><path d="M0,0 L1080,0 L1080,1080 L0,1080z"/></clipPath><clipPath id="__lottie_element_757"><path d="M0,0 L1080,0 L1080,1080 L0,1080z"/></clipPath><clipPath id="__lottie_element_764"><path d="M0,0 L1080,0 L1080,1080 L0,1080z"/></clipPath><clipPath id="__lottie_element_771"><path d="M0,0 L1080,0 L1080,1080 L0,1080z"/></clipPath><clipPath id="__lottie_element_778"><path d="M0,0 L1080,0 L1080,1080 L0,1080z"/></clipPath><clipPath id="__lottie_element_785"><path d="M0,0 L1080,0 L1080,1080 L0,1080z"/></clipPath><clipPath id="__lottie_element_792"><path d="M0,0 L1080,0 L1080,1080 L0,1080z"/></clipPath><g id="__lottie_element_666"><g style="display: none;"><g><path/></g></g></g><clipPath id="__lottie_element_805"><path d="M0,0 L1080,0 L1080,1080 L0,1080z"/></clipPath><clipPath id="__lottie_element_809"><path d="M0,0 L1080,0 L1080,1080 L0,1080z"/></clipPath><clipPath id="__lottie_element_816"><path d="M0,0 L1080,0 L1080,1080 L0,1080z"/></clipPath><clipPath id="__lottie_element_823"><path d="M0,0 L1080,0 L1080,1080 L0,1080z"/></clipPath><clipPath id="__lottie_element_830"><path d="M0,0 L1080,0 L1080,1080 L0,1080z"/></clipPath><clipPath id="__lottie_element_837"><path d="M0,0 L1080,0 L1080,1080 L0,1080z"/></clipPath><clipPath id="__lottie_element_844"><path d="M0,0 L1080,0 L1080,1080 L0,1080z"/></clipPath><clipPath id="__lottie_element_851"><path d="M0,0 L1080,0 L1080,1080 L0,1080z"/></clipPath><clipPath id="__lottie_element_858"><path d="M0,0 L1080,0 L1080,1080 L0,1080z"/></clipPath><clipPath id="__lottie_element_865"><path d="M0,0 L1080,0 L1080,1080 L0,1080z"/></clipPath><clipPath id="__lottie_element_872"><path d="M0,0 L1080,0 L1080,1080 L0,1080z"/></clipPath><clipPath id="__lottie_element_879"><path d="M0,0 L1080,0 L1080,1080 L0,1080z"/></clipPath><clipPath id="__lottie_element_886"><path d="M0,0 L1080,0 L1080,1080 L0,1080z"/></clipPath><clipPath id="__lottie_element_893"><path d="M0,0 L1080,0 L1080,1080 L0,1080z"/></clipPath><clipPath id="__lottie_element_900"><path d="M0,0 L1080,0 L1080,1080 L0,1080z"/></clipPath><clipPath id="__lottie_element_907"><path d="M0,0 L1080,0 L1080,1080 L0,1080z"/></clipPath><clipPath id="__lottie_element_914"><path d="M0,0 L1080,0 L1080,1080 L0,1080z"/></clipPath><g id="__lottie_element_803"><g style="display: none;"><g><path/></g></g></g><clipPath id="__lottie_element_928"><path d="M0,0 L1080,0 L1080,1080 L0,1080z"/></clipPath><clipPath id="__lottie_element_932"><path d="M0,0 L1080,0 L1080,1080 L0,1080z"/></clipPath><clipPath id="__lottie_element_939"><path d="M0,0 L1080,0 L1080,1080 L0,1080z"/></clipPath><clipPath id="__lottie_element_946"><path d="M0,0 L1080,0 L1080,1080 L0,1080z"/></clipPath><clipPath id="__lottie_element_953"><path d="M0,0 L1080,0 L1080,1080 L0,1080z"/></clipPath><clipPath id="__lottie_element_960"><path d="M0,0 L1080,0 L1080,1080 L0,1080z"/></clipPath><clipPath id="__lottie_element_967"><path d="M0,0 L1080,0 L1080,1080 L0,1080z"/></clipPath><clipPath id="__lottie_element_974"><path d="M0,0 L1080,0 L1080,1080 L0,1080z"/></clipPath><clipPath id="__lottie_element_981"><path d="M0,0 L1080,0 L1080,1080 L0,1080z"/></clipPath><clipPath id="__lottie_element_988"><path d="M0,0 L1080,0 L1080,1080 L0,1080z"/></clipPath><clipPath id="__lottie_element_995"><path d="M0,0 L1080,0 L1080,1080 L0,1080z"/></clipPath><clipPath id="__lottie_element_1002"><path d="M0,0 L1080,0 L1080,1080 L0,1080z"/></clipPath><clipPath id="__lottie_element_1009"><path d="M0,0 L1080,0 L1080,1080 L0,1080z"/></clipPath><clipPath id="__lottie_element_1016"><path d="M0,0 L1080,0 L1080,1080 L0,1080z"/></clipPath><clipPath id="__lottie_element_1023"><path d="M0,0 L1080,0 L1080,1080 L0,1080z"/></clipPath><clipPath id="__lottie_element_1030"><path d="M0,0 L1080,0 L1080,1080 L0,1080z"/></clipPath><clipPath id="__lottie_element_1037"><path d="M0,0 L1080,0 L1080,1080 L0,1080z"/></clipPath><g id="__lottie_element_925"><g transform="matrix(0.9990928769111633,0.04258304834365845,-0.04258304834365845,0.9990928769111633,531.9696655273438,569.2606811523438)" opacity="1" style="display: block;"><g opacity="1" transform="matrix(1,0,0,1,0,0)"><path fill="rgb(244,143,6)" fill-opacity="1" d=" M362.93798828125,-222.4219970703125 C356.8320007324219,-167.6790008544922 307.50299072265625,-128.25 252.75999450683594,-134.3560028076172 C198.01699829101562,-140.46200561523438 158.58900451660156,-189.7899932861328 164.69500732421875,-244.5330047607422 C170.80099487304688,-299.2760009765625 220.12899780273438,-338.7049865722656 274.87200927734375,-332.5989990234375 C329.614990234375,-326.4930114746094 369.04400634765625,-277.1650085449219 362.93798828125,-222.4219970703125z"/></g></g></g><g id="__lottie_element_1054"><g transform="matrix(0.9989519119262695,0.04577188193798065,-0.04577188193798065,0.9989519119262695,544.1224365234375,592.7919921875)" opacity="1" style="display: block;"><g opacity="1" transform="matrix(1,0,0,1,0,0)"><path fill="rgb(255,198,183)" fill-opacity="1" d=" M149.1840057373047,-230.41799926757812 C149.1840057373047,-230.41799926757812 149.1840057373047,-19.027999877929688 149.1840057373047,-19.027999877929688 C149.1840057373047,-1.4980000257492065 -125.20600128173828,2.691999912261963 -125.20600128173828,-19.027999877929688 C-125.20600128173828,-19.027999877929688 -125.20600128173828,-230.41799926757812 -125.20600128173828,-230.41799926757812 C-125.20600128173828,-261.6579895019531 149.1840057373047,-234.6179962158203 149.1840057373047,-230.41799926757812z"/></g></g></g><mask id="__lottie_element_1054_1" mask-type="alpha"><use xmlns:ns1="http://www.w3.org/1999/xlink" ns1:href="#__lottie_element_1054"/></mask><g id="__lottie_element_1060"><g transform="matrix(0.9989519119262695,0.04577188193798065,-0.04577188193798065,0.9989519119262695,544.1224365234375,592.7919921875)" opacity="1" style="display: block;"><g opacity="1" transform="matrix(1,0,0,1,0,0)"><path fill="rgb(164,20,20)" fill-opacity="1" d=" M-38.948001861572266,-8.925000190734863 C-29.07200050354004,-12.96399974822998 -22.04400062561035,-12.621000289916992 -17.996999740600586,-12.477999687194824 C-13.949999809265137,-12.335000038146973 -8.21399974822998,-11.607000350952148 -3.1519999504089355,-9.979999542236328 C1.909999966621399,-8.352999687194824 6.35699987411499,-5.870999813079834 11.552000045776367,0.22100000083446503 C16.746999740600586,6.313000202178955 19.093000411987305,16.385000228881836 17.413000106811523,23.2189998626709 C15.732999801635742,30.05299949645996 8.902999877929688,37.22700119018555 -3.197999954223633,35.5369987487793 C-14.222000122070312,33.99700164794922 -13.237000465393066,27.229999542236328 -36.987998962402344,26.100000381469727 C-53.707000732421875,25.30500030517578 -57.67300033569336,-1.2660000324249268 -38.948001861572266,-8.925000190734863z"/></g></g></g><mask id="__lottie_element_1060_1" mask-type="alpha"><use xmlns:ns2="http://www.w3.org/1999/xlink" ns2:href="#__lottie_element_1060"/></mask><g id="__lottie_element_1072"><g transform="matrix(0.9989519119262695,0.04577188193798065,-0.04577188193798065,0.9989519119262695,544.1224365234375,592.7919921875)" opacity="1" style="display: block;"><g opacity="1" transform="matrix(1,0,0,1,0,0)"><path fill="rgb(236,227,227)" fill-opacity="1" d=" M104.5,-119.25 C104.5,-119.25 75.25,-148.5 34.75,-105.5 C24.75,-113.75 0.5,-130.25 -43.25,-114.25 C-47,-98.5 -42.55400085449219,-47.448001861572266 -42.55400085449219,-47.448001861572266 C-42.55400085449219,-47.448001861572266 -22.202999114990234,-10.812000274658203 18.773000717163086,-34.347999572753906 C30.023000717163086,-22.847999572753906 41,-28.25 41,-28.25 C41,-28.25 51.055999755859375,-35.28200149536133 59.915000915527344,-34.702999114990234 C72.51300048828125,-33.87900161743164 86.13800048828125,-28.959999084472656 106.16200256347656,-45.73699951171875 C116.41200256347656,-38.73699951171875 104.5,-119.25 104.5,-119.25z"/></g></g></g><clipPath id="__lottie_element_1076"><path d="M0,0 L1080,0 L1080,1080 L0,1080z"/></clipPath><g id="__lottie_element_1079"><g transform="matrix(1,0,0,1,540,594)" opacity="1" style="display: block;"><g opacity="1" transform="matrix(1,0,0,1,0,0)"><path fill="rgb(255,255,255)" fill-opacity="1" d=" M-7.7769999504089355,-114.73200225830078 C-7.7769999504089355,-114.73200225830078 -7.7769999504089355,-114.73200225830078 -7.7769999504089355,-114.73200225830078 C10.793999671936035,-114.73200225830078 25.847999572753906,-99.6780014038086 25.847999572753906,-81.10700225830078 C25.847999572753906,-81.10700225830078 25.847999572753906,-63.388999938964844 25.847999572753906,-63.388999938964844 C25.847999572753906,-44.81800079345703 10.793999671936035,-29.76300048828125 -7.7769999504089355,-29.76300048828125 C-7.7769999504089355,-29.76300048828125 -7.7769999504089355,-29.76300048828125 -7.7769999504089355,-29.76300048828125 C-26.347999572753906,-29.76300048828125 -41.40299987792969,-44.81800079345703 -41.40299987792969,-63.388999938964844 C-41.40299987792969,-63.388999938964844 -41.40299987792969,-81.10700225830078 -41.40299987792969,-81.10700225830078 C-41.40299987792969,-99.6780014038086 -26.347999572753906,-114.73200225830078 -7.7769999504089355,-114.73200225830078z M74.38400268554688,-123.02100372314453 C74.38400268554688,-123.02100372314453 74.38400268554688,-123.02100372314453 74.38400268554688,-123.02100372314453 C89.5770034790039,-123.02100372314453 101.89299774169922,-107.96700286865234 101.89299774169922,-89.39600372314453 C101.89299774169922,-89.39600372314453 101.89299774169922,-71.6780014038086 101.89299774169922,-71.6780014038086 C101.89299774169922,-53.106998443603516 89.5770034790039,-38.053001403808594 74.38400268554688,-38.053001403808594 C74.38400268554688,-38.053001403808594 74.38400268554688,-38.053001403808594 74.38400268554688,-38.053001403808594 C59.191001892089844,-38.053001403808594 46.874000549316406,-53.106998443603516 46.874000549316406,-71.6780014038086 C46.874000549316406,-71.6780014038086 46.874000549316406,-89.39600372314453 46.874000549316406,-89.39600372314453 C46.874000549316406,-107.96700286865234 59.191001892089844,-123.02100372314453 74.38400268554688,-123.02100372314453z"/></g></g></g><mask id="__lottie_element_1079_1" mask-type="alpha"><use xmlns:ns3="http://www.w3.org/1999/xlink" ns3:href="#__lottie_element_1079"/></mask><mask id="__lottie_element_1072_1" mask-type="alpha"><use xmlns:ns4="http://www.w3.org/1999/xlink" ns4:href="#__lottie_element_1072"/></mask><mask id="__lottie_element_925_1" mask-type="alpha"><use xmlns:ns5="http://www.w3.org/1999/xlink" ns5:href="#__lottie_element_925"/></mask><mask id="__lottie_element_803_1" mask-type="alpha"><use xmlns:ns6="http://www.w3.org/1999/xlink" ns6:href="#__lottie_element_803"/></mask><mask id="__lottie_element_666_1" mask-type="alpha"><use xmlns:ns7="http://www.w3.org/1999/xlink" ns7:href="#__lottie_element_666"/></mask></defs><g clip-path="url(#__lottie_element_665)"><g transform="matrix(1,0,0,1,540,594)" opacity="0.3" style="display: block;"><path fill="rgb(175,175,175)" fill-opacity="1" d=" M-9.508999824523926,236.6510009765625 C77.39199829101562,236.6510009765625 147.83900451660156,291.50201416015625 147.83900451660156,359.16400146484375 C147.83900451660156,426.82598876953125 77.39199829101562,481.677001953125 -9.508999824523926,481.677001953125 C-96.41000366210938,481.677001953125 -166.85699462890625,426.82598876953125 -166.85699462890625,359.16400146484375 C-166.85699462890625,291.50201416015625 -96.41000366210938,236.6510009765625 -9.508999824523926,236.6510009765625z"/></g><g transform="matrix(0.9989519119262695,0.04577188193798065,-0.04577188193798065,0.9989519119262695,544.1224365234375,592.7919921875)" opacity="1" style="display: block;"><g opacity="1" transform="matrix(1,0,0,1,0,0)"><path fill="rgb(255,177,0)" fill-opacity="1" d=" M-156.63900756835938,-76.82599639892578 C-156.63900756835938,-76.82599639892578 -156.63900756835938,-197.3260040283203 -156.63900756835938,-197.3260040283203 C-156.63900756835938,-197.3260040283203 -117.13899993896484,-168.8260040283203 -117.13899993896484,-168.8260040283203 C-117.13899993896484,-168.8260040283203 -117.13899993896484,-117.82599639892578 -117.13899993896484,-117.82599639892578 C-117.13899993896484,-117.82599639892578 -117.13899993896484,-46.82600021362305 -117.13899993896484,-46.82600021362305 C-117.13899993896484,-34.82600021362305 -119.13899993896484,12.173999786376953 -156.13900756835938,12.173999786376953 C-193.87899780273438,12.173999786376953 -204.61900329589844,-16.599000930786133 -207.97900390625,-32.5629997253418 C-208.72900390625,-36.12200164794922 -205.87899780273438,-39.308998107910156 -202.24899291992188,-39.50600051879883 C-164.07899475097656,-41.56999969482422 -156.63900756835938,-60.986000061035156 -156.63900756835938,-76.82599639892578z M138.302001953125,-130.8260040283203 C129.10400390625,-135.65199279785156 118.67400360107422,-146.3260040283203 118.67400360107422,-146.3260040283203 C118.67400360107422,-146.3260040283203 100.66300201416016,-148.3260040283203 100.66300201416016,-148.3260040283203 C100.66300201416016,-148.3260040283203 100.51200103759766,-124.82599639892578 100.51200103759766,-124.82599639892578 C100.51200103759766,-124.82599639892578 102.6510009765625,-79.32599639892578 102.6510009765625,-79.32599639892578 C102.6510009765625,-67.32599639892578 106.45600128173828,-38.152000427246094 133.97799682617188,-36.82600021362305 C161.5,-35.5 169.5,-46.5 176.5570068359375,-58.0629997253418 C183.61399841308594,-69.6259994506836 180.53199768066406,-87.01200103759766 172.51600646972656,-98.50599670410156 C164.5,-110 147.5,-126 138.302001953125,-130.8260040283203z"/></g></g><g transform="matrix(0.9849144816398621,0.17304177582263947,-0.17304177582263947,0.9849144816398621,550.8043212890625,569.92626953125)" opacity="1" style="display: block;"><path stroke-linecap="round" stroke-linejoin="round" fill-opacity="0" stroke="rgb(255,75,75)" stroke-opacity="1" stroke-width="125" d=" M148.51600646972656,35.05099868774414 C148.51600646972656,35.05099868774414 261.9839172363281,67.70182037353516 261.9839172363281,67.70182037353516 C261.9839172363281,67.70182037353516 266.0365295410156,-11.599159240722656 266.0365295410156,-11.599159240722656"/></g><g transform="matrix(0.9999725818634033,0.00739682000130415,-0.00739682000130415,0.9999725818634033,532.2841186523438,579.0140380859375)" opacity="1" style="display: block;"><g opacity="0" transform="matrix(0.9848077297210693,-0.1736481785774231,0.1736481785774231,0.9848077297210693,59.12774658203125,-181.51983642578125)"><path fill="rgb(255,198,183)" fill-opacity="1" d=" M144,225.5 C126,243 118.7239990234375,278.6579895019531 120.3949966430664,293.26800537109375 C125.6449966430664,339.177001953125 220.75,355.8949890136719 226.71200561523438,323.9110107421875 C228.51100158691406,314.2569885253906 221.4669952392578,307.0299987792969 233.14100646972656,276.1990051269531 C235.4720001220703,270.0429992675781 235.5,260.5 234.5,256.5 C229,259 178.5,270 144,225.5z"/></g><g opacity="1" transform="matrix(1,0,0,1,0,0)"><g opacity="1" transform="matrix(1,0,0,1,0,0)"><path stroke-linecap="round" stroke-linejoin="miter" fill-opacity="0" stroke-miterlimit="10" stroke="rgb(255,198,183)" stroke-opacity="1" stroke-width="35" d=" M263.20098876953125,-71.70899963378906 C263.20098876953125,-71.70899963378906 264.4309997558594,-128.44900512695312 264.4309997558594,-128.44900512695312 M247.3159942626953,-4.129000186920166 C223.01499938964844,-15.772000312805176 224.9530029296875,-61.97200012207031 271.625,-52.21500015258789"/></g><g opacity="1" transform="matrix(1,0,0,1,0,0)"><path fill="rgb(255,198,183)" fill-opacity="1" d=" M343.64801025390625,-72.55799865722656 C343.64801025390625,-72.55799865722656 278.9259948730469,-97.23799896240234 278.9259948730469,-97.23799896240234 C263.0050048828125,-101.85199737548828 247.78700256347656,-86.3489990234375 243.17300415039062,-70.4280014038086 C243.17300415039062,-70.4280014038086 228.9969940185547,-21.514999389648438 228.9969940185547,-21.514999389648438 C224.38299560546875,-5.593999862670898 233.5489959716797,11.052000045776367 249.47000122070312,15.666000366210938 C249.47000122070312,15.666000366210938 312.76300048828125,34.0099983215332 312.76300048828125,34.0099983215332 C328.6839904785156,38.624000549316406 345.3299865722656,29.45800018310547 349.9440002441406,13.536999702453613 C349.9440002441406,13.536999702453613 364.1199951171875,-35.375999450683594 364.1199951171875,-35.375999450683594 C368.7340087890625,-51.297000885009766 359.5690002441406,-67.94400024414062 343.64801025390625,-72.55799865722656z"/></g><g opacity="1" transform="matrix(1,0,0,1,0,0)"><path stroke-linecap="round" stroke-linejoin="miter" fill-opacity="0" stroke-miterlimit="4" stroke="rgb(233,166,154)" stroke-opacity="1" stroke-width="7" d=" M246.8280029296875,-70.78399658203125 C246.8280029296875,-70.78399658203125 266.52398681640625,-70.90299987792969 275.6669921875,-71.21900177001953 C275.6669921875,-71.21900177001953 264.3080139160156,-35.095001220703125 264.3080139160156,-35.095001220703125 C264.3080139160156,-35.095001220703125 248.75900268554688,-33.305999755859375 248.75900268554688,-33.305999755859375 M302.0899963378906,-43.10599899291992 C301.1130065917969,-40.125999450683594 300.2300109863281,-36.93299865722656 299.48699951171875,-33.52399826049805 C297.4259948730469,-24.073999404907227 304.0400085449219,-14.883000373840332 313.5539855957031,-13.138999938964844 C323.0679931640625,-11.395000457763672 332.19500732421875,-17.69300079345703 333.9389953613281,-27.207000732421875 C333.9389953613281,-27.207000732421875 339.7569885253906,-46.654998779296875 339.7569885253906,-46.654998779296875 M308.406005859375,-57.3129997253418 C305.5010070800781,-49.48500061035156 299.48699951171875,-33.52399826049805 299.48699951171875,-33.52399826049805 C295.27801513671875,-23.486000061035156 288.6159973144531,-17.711999893188477 279.10198974609375,-19.45599937438965 C269.5880126953125,-21.200000762939453 263.38299560546875,-29.332000732421875 265.12701416015625,-38.84600067138672 C265.12701416015625,-38.84600067138672 279.1659851074219,-83.58000183105469 279.1659851074219,-83.58000183105469"/></g></g></g><g transform="matrix(1,0,0,1,540,594)" opacity="1" style="display: block;"><g opacity="1" transform="matrix(1,0,0,1,0,0)"><path fill="rgb(255,75,75)" fill-opacity="1" d=" M82.4260025024414,383.1470031738281 C69.58699798583984,395.7229919433594 48.98699951171875,395.5119934082031 36.40800094604492,382.6730041503906 C36.40800094604492,382.6730041503906 7.745485782623291,353.8990173339844 6.394545078277588,351.48223876953125 C-5.595179557800293,338.2313232421875 -14.785839080810547,332.7271423339844 -13.453386306762695,299.857177734375 C-12.728765487670898,281.98406982421875 43.074710845947266,295.4653015136719 55.067771911621094,308.7397766113281 C55.067771911621094,308.7397766113281 81.71259307861328,335.0061950683594 83.35091400146484,337.0548400878906 C95.79824829101562,350.1629333496094 95.26499938964844,370.5710144042969 82.4260025024414,383.1470031738281z"/></g><g opacity="1" transform="matrix(1,0,0,1,0,0)"><path fill="rgb(255,198,183)" fill-opacity="1" d=" M29.726961135864258,170.24278259277344 C29.726961135864258,170.24278259277344 29.726961135864258,170.24278259277344 29.726961135864258,170.24278259277344 C51.04258728027344,170.97897338867188 67.7245864868164,188.8545379638672 66.98839569091797,210.170166015625 C66.98839569091797,210.170166015625 63.786746978759766,302.8739013671875 63.786746978759766,302.8739013671875 C63.05055236816406,324.1895446777344 45.71087646484375,340.8910217285156 23.859355926513672,340.1363525390625 C2.0078327655792236,339.38165283203125 -14.139120101928711,321.52374267578125 -13.402926445007324,300.2080993652344 C-13.402926445007324,300.2080993652344 -10.201279640197754,207.50436401367188 -10.201279640197754,207.50436401367188 C-9.465085983276367,186.18873596191406 8.411334037780762,169.50657653808594 29.726961135864258,170.24278259277344z"/></g></g><g transform="matrix(0.9986239671707153,0.052442263811826706,-0.052442263811826706,0.9986239671707153,549.2250366210938,594.3284912109375)" opacity="1" style="display: block;"><g opacity="1" transform="matrix(1,0,0,1,0,0)"><path fill="rgb(255,75,75)" fill-opacity="1" d=" M-27.30868911743164,423.95965576171875 C-48.52707290649414,425.7371826171875 -67.17098999023438,409.97589111328125 -68.94853210449219,388.7565002441406 C-68.94853210449219,388.7565002441406 -72.51266479492188,346.20855712890625 -72.51266479492188,346.20855712890625 C-74.29020690917969,324.99017333984375 -58.527915954589844,306.3472595214844 -37.309532165527344,304.5697326660156 C-16.091150283813477,302.79217529296875 2.552767753601074,318.553466796875 4.330312252044678,339.7718505859375 C4.330312252044678,339.7718505859375 7.8940300941467285,382.3197937011719 7.8940300941467285,382.3197937011719 C9.671574592590332,403.5391845703125 -6.090305328369141,422.1820983886719 -27.30868911743164,423.95965576171875z"/></g><g opacity="1" transform="matrix(1,0,0,1,0,0)"><path fill="rgb(255,198,183)" fill-opacity="1" d=" M-34.43899917602539,198.56500244140625 C-34.43899917602539,198.56500244140625 -34.43899917602539,198.56500244140625 -34.43899917602539,198.56500244140625 C-13.038000106811523,198.56500244140625 4.309999942779541,215.91299438476562 4.309999942779541,237.31399536132812 C4.309999942779541,237.31399536132812 4.309999942779541,330.3900146484375 4.309999942779541,330.3900146484375 C4.309999942779541,351.7909851074219 -13.038000106811523,369.1390075683594 -34.43899917602539,369.1390075683594 C-34.43899917602539,369.1390075683594 -34.43899917602539,369.1390075683594 -34.43899917602539,369.1390075683594 C-55.84000015258789,369.1390075683594 -73.18900299072266,351.7909851074219 -73.18900299072266,330.3900146484375 C-73.18900299072266,330.3900146484375 -73.18900299072266,237.31399536132812 -73.18900299072266,237.31399536132812 C-73.18900299072266,215.91299438476562 -55.84000015258789,198.56500244140625 -34.43899917602539,198.56500244140625z"/></g></g><g transform="matrix(0.99993497133255,0.01140294224023819,-0.01140294224023819,0.99993497133255,542.8978881835938,593.513671875)" opacity="1" style="display: block;"><g opacity="1" transform="matrix(1,0,0,1,0,0)"><path fill="rgb(255,75,75)" fill-opacity="1" d=" M176.3470001220703,116.5479965209961 C186.21800231933594,59.678001403808594 141.7310028076172,10.163999557495117 124.46099853515625,-7.10699987411499 C124.46099853515625,-7.10699987411499 -169.19900512695312,34.095001220703125 -180.85899353027344,77.40799713134766 C-196.0489959716797,133.86000061035156 -174.70899963378906,192.50999450683594 -133.33900451660156,233.81399536132812 C-96.73899841308594,270.3489990234375 89.90399932861328,261.8450012207031 89.90399932861328,261.8450012207031 C89.90399932861328,261.8450012207031 150.1840057373047,273.78900146484375 176.3470001220703,116.5479965209961z"/></g><g opacity="1" transform="matrix(1,0,0,1,0,0)"><path fill="rgb(255,75,75)" fill-opacity="1" d=" M-213.5019989013672,79.64199829101562 C-225.3040008544922,26.77199935913086 -206.85800170898438,-2.4509999752044678 -154.16200256347656,-14.364999771118164 C-154.16200256347656,-14.364999771118164 54.52799987792969,-61.54800033569336 54.52799987792969,-61.54800033569336 C107.2239990234375,-73.46199798583984 159.50999450683594,-40.26100158691406 171.31199645996094,12.609000205993652 C171.31199645996094,12.609000205993652 171.31199645996094,12.609000205993652 171.31199645996094,12.609000205993652 C183.11399841308594,65.47899627685547 149.96400451660156,117.99700164794922 97.26799774169922,129.91099548339844 C97.26799774169922,129.91099548339844 -111.4219970703125,177.09300231933594 -111.4219970703125,177.09300231933594 C-111.4219970703125,177.09300231933594 -191.11500549316406,185.39500427246094 -213.5019989013672,79.64199829101562z"/></g><g opacity="1" transform="matrix(1,0,0,1,0,0)"><path fill="rgb(255,75,75)" fill-opacity="1" d=" M140.07400512695312,-56.058998107910156 C140.07400512695312,-56.058998107910156 -127.8479995727539,-42.58399963378906 -127.8479995727539,-42.58399963378906 C-138.1959991455078,-42.06399917602539 -146.5850067138672,-33.28300094604492 -146.5850067138672,-22.972999572753906 C-146.5850067138672,-22.972999572753906 -146.5850067138672,119.1989974975586 -146.5850067138672,119.1989974975586 C-146.5850067138672,119.1989974975586 163.08200073242188,103.6240005493164 163.08200073242188,103.6240005493164 C163.08200073242188,103.6240005493164 163.08200073242188,-34.29100036621094 163.08200073242188,-34.29100036621094 C163.08200073242188,-46.95199966430664 152.781005859375,-56.698001861572266 140.07400512695312,-56.058998107910156z"/></g><g opacity="1" transform="matrix(1,0,0,1,0,0)"><path stroke-linecap="butt" stroke-linejoin="miter" fill-opacity="0" stroke-miterlimit="4" stroke="rgb(235,227,227)" stroke-opacity="1" stroke-width="13" d=" M31.459999084472656,96.9280014038086 C35.61600112915039,105.12699890136719 44.80400085449219,133.95899963378906 45.3129997253418,145.49099731445312 C45.95199966430664,159.98599243164062 42.4379997253418,210.91799926757812 39.415000915527344,236.23300170898438"/></g><g opacity="1" transform="matrix(1,0,0,1,10.5,28.5)"><path fill="rgb(236,227,227)" fill-opacity="1" d=" M26.75,51 C26.75,51 13.75,53.5 13.75,53.5 C13.75,53.5 13,83.75 13,83.75 C13,83.75 42,79.25 42,79.25 C42,79.25 26.75,51 26.75,51z"/><path stroke-linecap="round" stroke-linejoin="round" fill-opacity="0" stroke="rgb(235,227,227)" stroke-opacity="1" stroke-width="13" d=" M26.75,51 C26.75,51 13.75,53.5 13.75,53.5 C13.75,53.5 13,83.75 13,83.75 C13,83.75 42,79.25 42,79.25 C42,79.25 26.75,51 26.75,51z"/></g><g opacity="1" transform="matrix(1,0,0,1,0,0)"><path fill="rgb(223,46,46)" fill-opacity="1" d=" M155.34500122070312,197.15199279785156 C96.00499725341797,232.77999877929688 -21.93000030517578,235.23699951171875 -74.447998046875,234.89999389648438 C-100.78900146484375,234.67799377441406 -169.37899780273438,185.56700134277344 -169.37899780273438,185.56700134277344 C-169.37899780273438,185.56700134277344 -162.61900329589844,214.67799377441406 -141.96800231933594,235.9239959716797 C-106.18900299072266,268.2340087890625 -85.30799865722656,283.7879943847656 -62.60200119018555,283.7860107421875 C-52.22600173950195,283.7860107421875 94.90699768066406,274.697998046875 117.677001953125,255.072998046875 C127.38700103759766,246.6959991455078 140.8520050048828,232.40699768066406 155.34500122070312,197.15199279785156z"/></g></g><g transform="matrix(0.9995392560958862,-0.030350463464856148,0.030350463464856148,0.9995392560958862,540.704833984375,587.0419311523438)" opacity="1" style="display: block;"><path stroke-linecap="round" stroke-linejoin="round" fill-opacity="0" stroke="rgb(255,75,75)" stroke-opacity="1" stroke-width="124" d=" M-155.48399353027344,51.05099868774414 C-155.48399353027344,51.05099868774414 -192.4685516357422,115.57948303222656 -202.9085693359375,138.43992614746094 C-212.69906616210938,159.87841796875 -238.20999145507812,224.490478515625 -238.20999145507812,224.490478515625"/></g><g style="display: none;"><g><g><path stroke-linecap="round" stroke-linejoin="miter" fill-opacity="0" stroke-miterlimit="10"/></g><g><path/></g><g><path stroke-linecap="round" stroke-linejoin="miter" fill-opacity="0" stroke-miterlimit="4"/></g></g></g><g style="display: none;"><g><path stroke-linecap="round" stroke-linejoin="miter" fill-opacity="0" stroke-miterlimit="10"/></g><g><path/></g><g><path stroke-linecap="round" stroke-linejoin="miter" fill-opacity="0" stroke-miterlimit="4"/></g><g><path stroke-linecap="round" stroke-linejoin="miter" fill-opacity="0" stroke-miterlimit="10"/></g></g><g transform="matrix(0.9995392560958862,-0.030350463464856148,0.030350463464856148,0.9995392560958862,540.704833984375,587.0419311523438)" opacity="1" style="display: block;"><g opacity="1" transform="matrix(1,0,0,1,0,0)"><path stroke-linecap="round" stroke-linejoin="miter" fill-opacity="0" stroke-miterlimit="10" stroke="rgb(255,198,183)" stroke-opacity="1" stroke-width="35" d=" M-265.9046630859375,272.1864013671875 C-265.9046630859375,272.1864013671875 -237.549560546875,268.9616394042969 -237.549560546875,268.9616394042969 M-288.663818359375,244.56781005859375 C-288.663818359375,244.56781005859375 -269.625244140625,259.5515441894531 -269.625244140625,259.5515441894531 M-239.2100830078125,295.5164489746094 C-239.2100830078125,295.5164489746094 -213.17599487304688,286.2105712890625 -213.17599487304688,286.2105712890625 M-184.84104919433594,266.3946228027344 C-184.84104919433594,266.3946228027344 -176.92568969726562,283.8021545410156 -176.92568969726562,283.8021545410156"/></g><g opacity="1" transform="matrix(1,0,0,1,0,0)"><path fill="rgb(255,198,183)" fill-opacity="1" d=" M-305.5967102050781,225.14015197753906 C-305.5967102050781,225.14015197753906 -292.0860595703125,191.9976043701172 -292.0860595703125,191.9976043701172 C-292.0860595703125,191.9976043701172 -292.48870849609375,225.1393585205078 -255.7378692626953,241.06005859375 C-219.97364807128906,256.55279541015625 -177.29637145996094,238.58169555664062 -177.29637145996094,238.58169555664062 C-177.29637145996094,238.58169555664062 -173.8883056640625,250.7659149169922 -173.8883056640625,250.7659149169922 C-170.9572296142578,261.2375793457031 -175.78839111328125,272.7035217285156 -183.36402893066406,280.50994873046875 C-183.36402893066406,280.50994873046875 -202.6305389404297,300.3718566894531 -202.6305389404297,300.3718566894531 C-218.07431030273438,316.29779052734375 -243.31446838378906,317.273681640625 -259.9422607421875,302.5878601074219 C-259.9422607421875,302.5878601074219 -294.6271667480469,271.9565124511719 -294.6271667480469,271.9565124511719 C-307.8616638183594,260.26861572265625 -312.2613830566406,241.49114990234375 -305.5967102050781,225.14015197753906z"/></g></g><g transform="matrix(0.9989519119262695,0.04577188193798065,-0.04577188193798065,0.9989519119262695,544.1224365234375,592.7919921875)" opacity="1" style="display: block;"><path fill="rgb(255,198,183)" fill-opacity="1" d=" M149.1840057373047,-230.41799926757812 C149.1840057373047,-230.41799926757812 149.1840057373047,-19.027999877929688 149.1840057373047,-19.027999877929688 C149.1840057373047,-1.4980000257492065 131.9739990234375,79.64199829101562 10.494000434875488,79.64199829101562 C-102.19599914550781,79.64199829101562 -125.20600128173828,2.691999912261963 -125.20600128173828,-19.027999877929688 C-125.20600128173828,-19.027999877929688 -125.20600128173828,-230.41799926757812 -125.20600128173828,-230.41799926757812 C-125.20600128173828,-261.6579895019531 149.1840057373047,-234.6179962158203 149.1840057373047,-230.41799926757812z"/></g><g transform="matrix(0.9989519119262695,0.04577188193798065,-0.04577188193798065,0.9989519119262695,544.1224365234375,592.7919921875)" opacity="1" style="display: block;"><path stroke-linecap="round" stroke-linejoin="miter" fill-opacity="0" stroke-miterlimit="4" stroke="rgb(255,198,183)" stroke-opacity="1" stroke-width="55" d=" M-127,-94.75 C-127,-94.75 -126,-94.75 -126,-94.75"/></g><g transform="matrix(0.9989519119262695,0.04577188193798065,-0.04577188193798065,0.9989519119262695,544.1224365234375,592.7919921875)" opacity="1" style="display: block;"><path stroke-linecap="round" stroke-linejoin="miter" fill-opacity="0" stroke-miterlimit="4" stroke="rgb(255,198,183)" stroke-opacity="1" stroke-width="55" d=" M137.5,-150 C137.5,-150 138.5,-150 138.5,-150"/></g><g mask="url(#__lottie_element_1072_1)" style="display: block;"><g clip-path="url(#__lottie_element_1076)" transform="matrix(0.9989519119262695,0.04577188193798065,-0.04577188193798065,0.9989519119262695,31.876922607421875,-25.30224609375)" opacity="1"><g mask="url(#__lottie_element_1079_1)" style="display: block;"><g transform="matrix(1,0,0,1,540,594)" opacity="1"><g opacity="1" transform="matrix(1,0,0,1,36.25,-92.25)"><path fill="rgb(255,255,255)" fill-opacity="1" d=" M132.25,-111.25 C132.25,-111.25 132.25,111.25 132.25,111.25 C132.25,111.25 -132.25,111.25 -132.25,111.25 C-132.25,111.25 -132.25,-111.25 -132.25,-111.25 C-132.25,-111.25 132.25,-111.25 132.25,-111.25z"/></g><path fill="rgb(61,61,61)" fill-opacity="1" d=" M-10.187999725341797,-87.04900360107422 C-0.8090000152587891,-87.04900360107422 3.9679999351501465,-92.875 2.244999885559082,-103.99299621582031 C11.133000373840332,-106.125 20,-98.7249984741211 20,-87.92400360107422 C20,-87.92400360107422 20,-76.62300109863281 20,-76.62300109863281 C20,-69.03500366210938 15.314000129699707,-62.41600036621094 8.618000030517578,-60.55500030517578 C-0.9079999923706055,-57.90700149536133 -10.16100025177002,-65.8219985961914 -10.16100025177002,-76.62300109863281 C-10.16100025177002,-76.62300109863281 -10.187999725341797,-87.04900360107422 -10.187999725341797,-87.04900360107422z M66.81099700927734,-100.86100006103516 C77.875,-100.86100006103516 79.5,-109.625 78.98699951171875,-117.35299682617188 C86.82599639892578,-118.36000061035156 93.93099975585938,-110.84300231933594 93.93099975585938,-100.86100006103516 C93.93099975585938,-100.86100006103516 93.93099975585938,-89.55999755859375 93.93099975585938,-89.55999755859375 C93.93099975585938,-81.97200012207031 89.71800231933594,-75.35199737548828 83.6969985961914,-73.49199676513672 C75.13099670410156,-70.84400177001953 66.81099700927734,-78.75900268554688 66.81099700927734,-89.55999755859375 C66.81099700927734,-89.55999755859375 66.81099700927734,-100.86100006103516 66.81099700927734,-100.86100006103516z"/></g></g></g></g><g transform="matrix(0.9989519119262695,0.04577188193798065,-0.04577188193798065,0.9989519119262695,544.1224365234375,592.7919921875)" opacity="1" style="display: block;"><g opacity="1" transform="matrix(1,0,0,1,0,0)"><path fill="rgb(238,149,131)" fill-opacity="1" d=" M54.73699951171875,-37.21699905395508 C56.34700012207031,-30.243000030517578 51.7869987487793,-22.042999267578125 44.22700119018555,-20.305999755859375 C36.676998138427734,-18.56999969482422 28.996999740600586,-23.954999923706055 27.386999130249023,-30.929000854492188 C25.78700065612793,-37.902000427246094 34.74700164794922,-58.92399978637695 35.31700134277344,-59.05500030517578 C35.887001037597656,-59.18600082397461 53.137001037597656,-44.189998626708984 54.73699951171875,-37.21699905395508z"/></g></g><g style="display: none;" transform="matrix(1,0,0,1,540,540)" opacity="1"><g opacity="1" transform="matrix(1,0,0,1,0,0)"><path stroke-linecap="round" stroke-linejoin="round" fill-opacity="0" stroke="rgb(233,166,154)" stroke-opacity="1" stroke-width="7" d=" M101,-34 C101,-34 47.5,-22.5 47.5,-22.5 M24.5,-20.5 C24.5,-20.5 -41,-22 -41,-22"/></g></g><g mask="url(#__lottie_element_1060_1)" style="display: block;"><g transform="matrix(0.9989519119262695,0.04577188193798065,-0.04577188193798065,0.9989519119262695,544.1224365234375,592.7919921875)" opacity="1"><g opacity="1" transform="matrix(1,0,0,1,16.375,-0.5)"><path fill="rgb(164,20,20)" fill-opacity="1" d=" M161.375,-66.5 C161.375,-66.5 161.375,66.5 161.375,66.5 C161.375,66.5 -161.375,66.5 -161.375,66.5 C-161.375,66.5 -161.375,-66.5 -161.375,-66.5 C-161.375,-66.5 161.375,-66.5 161.375,-66.5z"/></g><g opacity="1" transform="matrix(1,0,0,1,0,0)"><path fill="rgb(210,33,33)" fill-opacity="1" d=" M7.395999908447266,46.82600021362305 C7.395999908447266,19.614999771118164 -13.220999717712402,-2.444000005722046 -38.652000427246094,-2.444000005722046 C-64.08300018310547,-2.444000005722046 -84.69999694824219,19.614999771118164 -84.69999694824219,46.82600021362305 C-84.69999694824219,74.03700256347656 -64.08300018310547,96.09500122070312 -38.652000427246094,96.09500122070312 C-13.220999717712402,96.09500122070312 7.395999908447266,74.03700256347656 7.395999908447266,46.82600021362305z"/></g><g opacity="1" transform="matrix(1,0,0,1,0,0)"><path fill="rgb(255,255,255)" fill-opacity="1" d=" M48.07699966430664,-20.84000015258789 C55.79199981689453,-71.00599670410156 -63.542999267578125,-79.51899719238281 -64.1500015258789,-65.0510025024414 C-65.5,-32.882999420166016 -31.461000442504883,-23.805999755859375 -24.430999755859375,-22.072999954223633 C-17.187999725341797,-20.288000106811523 -9.895000457763672,-21.834999084472656 -4.193999767303467,-25.743999481201172 C-0.953000009059906,-19.631000518798828 4.775000095367432,-14.873000144958496 12.017999649047852,-13.088000297546387 C18.73699951171875,-11.432000160217285 38.96799850463867,-11.022000312805176 48.07699966430664,-20.84000015258789z"/></g></g></g><g mask="url(#__lottie_element_1054_1)" style="display: block;"><g transform="matrix(0.9989519119262695,0.04577188193798065,-0.04577188193798065,0.9989519119262695,544.1224365234375,592.7919921875)" opacity="1"><g opacity="0" transform="matrix(1,0,0,1,40,-140.52499389648438)"><path fill="rgb(255,177,0)" fill-opacity="1" d=" M269,-150.5 C269,-150.5 269,150.5 269,150.5 C269,150.5 -269,150.5 -269,150.5 C-269,150.5 -269,-150.5 -269,-150.5 C-269,-150.5 269,-150.5 269,-150.5z"/><path stroke-linecap="butt" stroke-linejoin="miter" fill-opacity="0" stroke-miterlimit="4" stroke="rgb(255,177,0)" stroke-opacity="1" stroke-width="67" d=" M269,-150.5 C269,-150.5 269,150.5 269,150.5 C269,150.5 -269,150.5 -269,150.5 C-269,150.5 -269,-150.5 -269,-150.5 C-269,-150.5 269,-150.5 269,-150.5z"/></g><g opacity="1" transform="matrix(0.9498553276062012,0.01657978631556034,-0.017452405765652657,0.9998477101325989,39.39286804199219,-30.06353759765625)"><path stroke-linecap="round" stroke-linejoin="miter" fill-opacity="0" stroke-miterlimit="4" stroke="rgb(255,177,0)" stroke-opacity="1" stroke-width="67" d=" M122.60299682617188,-187.06100463867188 C122.60299682617188,-187.06100463867188 123.8280029296875,-130.72999572753906 123.8280029296875,-130.72999572753906"/></g><g opacity="1" transform="matrix(0.889864444732666,0.015532641671597958,-0.017277883365750313,0.9898492097854614,-210.20050048828125,-2.5244903564453125)"><path stroke-linecap="round" stroke-linejoin="miter" fill-opacity="0" stroke-miterlimit="4" stroke="rgb(255,177,0)" stroke-opacity="1" stroke-width="67" d=" M122.60299682617188,-187.06100463867188 C122.60299682617188,-187.06100463867188 123.8280029296875,-130.72999572753906 123.8280029296875,-130.72999572753906"/></g><g opacity="1" transform="matrix(1,0,0,1,0,0)"><path fill="rgb(255,177,0)" fill-opacity="1" d=" M-103.41400146484375,-173.01499938964844 C-103.41400146484375,-173.01499938964844 -121.1050033569336,-178.2570037841797 -121.1050033569336,-178.2570037841797 C-121.1050033569336,-178.2570037841797 -121.69499969482422,-126.35700225830078 -121.69499969482422,-126.35700225830078 C-121.69499969482422,-126.35700225830078 -118.9260025024414,-122.53299713134766 -104.89900207519531,-104.94100189208984 C-105.02100372314453,-125.9469985961914 -103.41400146484375,-173.01499938964844 -103.41400146484375,-173.01499938964844z"/></g></g></g><g transform="matrix(0.9989519119262695,0.04577188193798065,-0.04577188193798065,0.9989519119262695,544.1224365234375,592.7919921875)" opacity="1" style="display: block;"><g opacity="1" transform="matrix(1,0,0,1,0,0)"><path fill="rgb(255,75,75)" fill-opacity="1" d=" M-1.5169999599456787,-298.3559875488281 C80.61499786376953,-298.3559875488281 158.00399780273438,-271 158.00399780273438,-231.28599548339844 C158.00399780273438,-228.49200439453125 158.14100646972656,-197.05499267578125 158.14100646972656,-194.5070037841797 C158.14100646972656,-157.31100463867188 86.66300201416016,-127.15699768066406 -1.5089999437332153,-127.15699768066406 C-89.68099975585938,-127.15699768066406 -161.36399841308594,-157.31100463867188 -161.36399841308594,-194.5070037841797 C-161.36399841308594,-195.50999450683594 -161.36099243164062,-230.00799560546875 -161.36099243164062,-231 C-161.36099243164062,-269.5 -87.31099700927734,-298.3559875488281 -1.5169999599456787,-298.3559875488281z"/></g><g opacity="1" transform="matrix(1,0,0,1,0,0)"><path fill="rgb(255,177,0)" fill-opacity="1" d=" M145.18099975585938,-237.55999755859375 C145.18099975585938,-205.52099609375 92.96600341796875,-173.36199951171875 -1.5169999599456787,-173.36199951171875 C-96,-173.36199951171875 -148.20899963378906,-205.52099609375 -148.20899963378906,-237.55999755859375 C-148.20899963378906,-274.13800048828125 -115.60199737548828,-297.8059997558594 -67.99800109863281,-308.5979919433594 C-69.552001953125,-313.45599365234375 -66.72000122070312,-337.4209899902344 -58.37699890136719,-338.4939880371094 C-50.60100173950195,-339.4939880371094 -49.40800094604492,-328.7820129394531 -41.191001892089844,-329.51300048828125 C-29.466999053955078,-330.5559997558594 -23.481000900268555,-351.1059875488281 6.991000175476074,-351.5639953613281 C48.30699920654297,-352.18499755859375 62.231998443603516,-322.7829895019531 67.34100341796875,-308.7950134277344 C113.6520004272461,-298.635986328125 145.18099975585938,-276.1679992675781 145.18099975585938,-237.55999755859375z"/></g></g><g mask="url(#__lottie_element_925_1)" style="display: block;"><g clip-path="url(#__lottie_element_928)" transform="matrix(0.9990928769111633,0.04258304834365845,-0.04258304834365845,0.9990928769111633,14.97613525390625,6.23480224609375)" opacity="1"><g transform="matrix(1,0,0,1,540,540)" opacity="1" style="display: block;"><g opacity="1" transform="matrix(1,0,0,1,244,-224)"><path fill="rgb(244,143,6)" fill-opacity="1" d=" M240,-176 C240,-176 240,176 240,176 C240,176 -240,176 -240,176 C-240,176 -240,-176 -240,-176 C-240,-176 240,-176 240,-176z"/></g></g><g clip-path="url(#__lottie_element_1037)" transform="matrix(1,0,0,1,0,0)" opacity="1" style="display: none;"><g transform="matrix(1,0,0,1,540,540)" opacity="1" style="display: block;"><g opacity="1" transform="matrix(1,0,0,1,0,0)"><path stroke-linecap="butt" stroke-linejoin="miter" fill-opacity="0" stroke-miterlimit="4" stroke="rgb(226,109,4)" stroke-opacity="1" stroke-width="7" d=" M268.5337829589844,-340.93084716796875 C397.1188659667969,-320.3777160644531 382.57086181640625,-148.13829040527344 279.4015808105469,-126.65428924560547 M240.15805053710938,-340.99249267578125 C110.25898742675781,-313.0525207519531 115.10138702392578,-150.96998596191406 233.30210876464844,-123.02251434326172 M269.5081481933594,-341.4263000488281 C298.1142883300781,-318.0159912109375 291.0662841796875,-149.70513916015625 273.52056884765625,-125.72114562988281"/></g></g></g><g clip-path="url(#__lottie_element_1030)" style="display: none;" transform="matrix(1,0,0,1,0,0)" opacity="1"><g style="display: block;" transform="matrix(1,0,0,1,540,540)" opacity="1"><g opacity="1" transform="matrix(1,0,0,1,0,0)"><path stroke-linecap="butt" stroke-linejoin="miter" fill-opacity="0" stroke-miterlimit="4" stroke="rgb(226,109,4)" stroke-opacity="1" stroke-width="7" d=" M265.42974853515625,-340.7901306152344 C354.6231384277344,-319.1112976074219 343.0301513671875,-148.41970825195312 273.5965576171875,-125.95071411132812 M240.05535888671875,-340.99737548828125 C108.79124450683594,-313.0184020996094 113.73603820800781,-150.98948669433594 233.10581970214844,-123.00788879394531 M266.685546875,-341.5669860839844 C255.89999389648438,-317.031005859375 251.8070068359375,-150.26800537109375 267.9969787597656,-125.29900360107422"/></g></g></g><g clip-path="url(#__lottie_element_1023)" style="display: block;" transform="matrix(1,0,0,1,0,0)" opacity="1"><g style="display: block;" transform="matrix(1,0,0,1,540,540)" opacity="1"><g opacity="1" transform="matrix(1,0,0,1,0,0)"><path stroke-linecap="butt" stroke-linejoin="miter" fill-opacity="0" stroke-miterlimit="4" stroke="rgb(226,109,4)" stroke-opacity="1" stroke-width="7" d=" M263.8856201171875,-340.72015380859375 C333.483154296875,-318.4812927246094 323.3601379394531,-148.55970764160156 270.7087707519531,-125.60071563720703 M240.0042724609375,-340.9997863769531 C108.06109619140625,-313.0014343261719 113.05683135986328,-150.9991912841797 233.00816345214844,-123.0006103515625 M265.2814025878906,-341.6369934082031 C234.89999389648438,-316.5409851074219 232.27699279785156,-150.54800415039062 265.24920654296875,-125.08899688720703"/></g></g></g><g clip-path="url(#__lottie_element_1016)" style="display: none;"><g style="display: none;"><g><path stroke-linecap="butt" stroke-linejoin="miter" fill-opacity="0" stroke-miterlimit="4"/></g></g></g><g clip-path="url(#__lottie_element_1009)" style="display: none;"><g style="display: none;"><g><path stroke-linecap="butt" stroke-linejoin="miter" fill-opacity="0" stroke-miterlimit="4"/></g></g></g><g clip-path="url(#__lottie_element_1002)" style="display: none;"><g style="display: none;"><g><path stroke-linecap="butt" stroke-linejoin="miter" fill-opacity="0" stroke-miterlimit="4"/></g></g></g><g clip-path="url(#__lottie_element_995)" style="display: none;"><g style="display: none;"><g><path stroke-linecap="butt" stroke-linejoin="miter" fill-opacity="0" stroke-miterlimit="4"/></g></g></g><g clip-path="url(#__lottie_element_988)" style="display: none;"><g style="display: none;"><g><path stroke-linecap="butt" stroke-linejoin="miter" fill-opacity="0" stroke-miterlimit="4"/></g></g></g><g clip-path="url(#__lottie_element_981)" style="display: none;"><g style="display: none;"><g><path stroke-linecap="butt" stroke-linejoin="miter" fill-opacity="0" stroke-miterlimit="4"/></g></g></g><g clip-path="url(#__lottie_element_974)" style="display: none;"><g style="display: none;"><g><path stroke-linecap="butt" stroke-linejoin="miter" fill-opacity="0" stroke-miterlimit="4"/></g></g></g><g clip-path="url(#__lottie_element_967)" style="display: none;"><g style="display: none;"><g><path stroke-linecap="butt" stroke-linejoin="miter" fill-opacity="0" stroke-miterlimit="4"/></g></g></g><g clip-path="url(#__lottie_element_960)" style="display: none;"><g style="display: none;"><g><path stroke-linecap="butt" stroke-linejoin="miter" fill-opacity="0" stroke-miterlimit="4"/></g></g></g><g clip-path="url(#__lottie_element_953)" style="display: none;"><g style="display: none;"><g><path stroke-linecap="butt" stroke-linejoin="miter" fill-opacity="0" stroke-miterlimit="4"/></g></g></g><g clip-path="url(#__lottie_element_946)" style="display: none;"><g style="display: none;"><g><path stroke-linecap="butt" stroke-linejoin="miter" fill-opacity="0" stroke-miterlimit="4"/></g></g></g><g clip-path="url(#__lottie_element_939)" style="display: none;"><g style="display: none;"><g><path stroke-linecap="butt" stroke-linejoin="miter" fill-opacity="0" stroke-miterlimit="4"/></g></g></g><g clip-path="url(#__lottie_element_932)" style="display: none;"><g style="display: none;"><g><path stroke-linecap="butt" stroke-linejoin="miter" fill-opacity="0" stroke-miterlimit="4"/></g></g></g></g></g><g mask="url(#__lottie_element_803_1)" style="display: none;"><g clip-path="url(#__lottie_element_805)"><g style="display: none;"><g><path/></g></g><g clip-path="url(#__lottie_element_914)" style="display: none;"><g style="display: none;"><g><path stroke-linecap="butt" stroke-linejoin="miter" fill-opacity="0" stroke-miterlimit="4"/></g></g></g><g clip-path="url(#__lottie_element_907)" style="display: none;"><g style="display: none;"><g><path stroke-linecap="butt" stroke-linejoin="miter" fill-opacity="0" stroke-miterlimit="4"/></g></g></g><g clip-path="url(#__lottie_element_900)" style="display: none;"><g style="display: none;"><g><path stroke-linecap="butt" stroke-linejoin="miter" fill-opacity="0" stroke-miterlimit="4"/></g></g></g><g clip-path="url(#__lottie_element_893)" style="display: none;"><g style="display: none;"><g><path stroke-linecap="butt" stroke-linejoin="miter" fill-opacity="0" stroke-miterlimit="4"/></g></g></g><g clip-path="url(#__lottie_element_886)" style="display: none;"><g style="display: none;"><g><path stroke-linecap="butt" stroke-linejoin="miter" fill-opacity="0" stroke-miterlimit="4"/></g></g></g><g clip-path="url(#__lottie_element_879)" style="display: none;"><g style="display: none;"><g><path stroke-linecap="butt" stroke-linejoin="miter" fill-opacity="0" stroke-miterlimit="4"/></g></g></g><g clip-path="url(#__lottie_element_872)" style="display: none;"><g style="display: none;"><g><path stroke-linecap="butt" stroke-linejoin="miter" fill-opacity="0" stroke-miterlimit="4"/></g></g></g><g clip-path="url(#__lottie_element_865)" style="display: none;"><g style="display: none;"><g><path stroke-linecap="butt" stroke-linejoin="miter" fill-opacity="0" stroke-miterlimit="4"/></g></g></g><g clip-path="url(#__lottie_element_858)" style="display: none;"><g style="display: none;"><g><path stroke-linecap="butt" stroke-linejoin="miter" fill-opacity="0" stroke-miterlimit="4"/></g></g></g><g clip-path="url(#__lottie_element_851)" style="display: none;"><g style="display: none;"><g><path stroke-linecap="butt" stroke-linejoin="miter" fill-opacity="0" stroke-miterlimit="4"/></g></g></g><g clip-path="url(#__lottie_element_844)" style="display: none;"><g style="display: none;"><g><path stroke-linecap="butt" stroke-linejoin="miter" fill-opacity="0" stroke-miterlimit="4"/></g></g></g><g clip-path="url(#__lottie_element_837)" style="display: none;"><g style="display: none;"><g><path stroke-linecap="butt" stroke-linejoin="miter" fill-opacity="0" stroke-miterlimit="4"/></g></g></g><g clip-path="url(#__lottie_element_830)" style="display: none;"><g style="display: none;"><g><path stroke-linecap="butt" stroke-linejoin="miter" fill-opacity="0" stroke-miterlimit="4"/></g></g></g><g clip-path="url(#__lottie_element_823)" style="display: none;"><g style="display: none;"><g><path stroke-linecap="butt" stroke-linejoin="miter" fill-opacity="0" stroke-miterlimit="4"/></g></g></g><g clip-path="url(#__lottie_element_816)" style="display: none;"><g style="display: none;"><g><path stroke-linecap="butt" stroke-linejoin="miter" fill-opacity="0" stroke-miterlimit="4"/></g></g></g><g clip-path="url(#__lottie_element_809)" style="display: none;"><g style="display: none;"><g><path stroke-linecap="butt" stroke-linejoin="miter" fill-opacity="0" stroke-miterlimit="4"/></g></g></g></g></g><g mask="url(#__lottie_element_666_1)" style="display: none;"><g clip-path="url(#__lottie_element_683)"><g style="display: none;"><g><path/></g></g><g clip-path="url(#__lottie_element_792)" style="display: none;"><g style="display: none;"><g><path stroke-linecap="butt" stroke-linejoin="miter" fill-opacity="0" stroke-miterlimit="4"/></g></g></g><g clip-path="url(#__lottie_element_785)" style="display: none;"><g style="display: none;"><g><path stroke-linecap="butt" stroke-linejoin="miter" fill-opacity="0" stroke-miterlimit="4"/></g></g></g><g clip-path="url(#__lottie_element_778)" style="display: none;"><g style="display: none;"><g><path stroke-linecap="butt" stroke-linejoin="miter" fill-opacity="0" stroke-miterlimit="4"/></g></g></g><g clip-path="url(#__lottie_element_771)" style="display: none;"><g style="display: none;"><g><path stroke-linecap="butt" stroke-linejoin="miter" fill-opacity="0" stroke-miterlimit="4"/></g></g></g><g clip-path="url(#__lottie_element_764)" style="display: none;"><g style="display: none;"><g><path stroke-linecap="butt" stroke-linejoin="miter" fill-opacity="0" stroke-miterlimit="4"/></g></g></g><g clip-path="url(#__lottie_element_757)" style="display: none;"><g style="display: none;"><g><path stroke-linecap="butt" stroke-linejoin="miter" fill-opacity="0" stroke-miterlimit="4"/></g></g></g><g clip-path="url(#__lottie_element_750)" style="display: none;"><g style="display: none;"><g><path stroke-linecap="butt" stroke-linejoin="miter" fill-opacity="0" stroke-miterlimit="4"/></g></g></g><g clip-path="url(#__lottie_element_743)" style="display: none;"><g style="display: none;"><g><path stroke-linecap="butt" stroke-linejoin="miter" fill-opacity="0" stroke-miterlimit="4"/></g></g></g><g clip-path="url(#__lottie_element_736)" style="display: none;"><g style="display: none;"><g><path stroke-linecap="butt" stroke-linejoin="miter" fill-opacity="0" stroke-miterlimit="4"/></g></g></g><g clip-path="url(#__lottie_element_729)" style="display: none;"><g style="display: none;"><g><path stroke-linecap="butt" stroke-linejoin="miter" fill-opacity="0" stroke-miterlimit="4"/></g></g></g><g clip-path="url(#__lottie_element_722)" style="display: none;"><g style="display: none;"><g><path stroke-linecap="butt" stroke-linejoin="miter" fill-opacity="0" stroke-miterlimit="4"/></g></g></g><g clip-path="url(#__lottie_element_715)" style="display: none;"><g style="display: none;"><g><path stroke-linecap="butt" stroke-linejoin="miter" fill-opacity="0" stroke-miterlimit="4"/></g></g></g><g clip-path="url(#__lottie_element_708)" style="display: none;"><g style="display: none;"><g><path stroke-linecap="butt" stroke-linejoin="miter" fill-opacity="0" stroke-miterlimit="4"/></g></g></g><g clip-path="url(#__lottie_element_701)" style="display: none;"><g style="display: none;"><g><path stroke-linecap="butt" stroke-linejoin="miter" fill-opacity="0" stroke-miterlimit="4"/></g></g></g><g clip-path="url(#__lottie_element_694)" style="display: none;"><g style="display: none;"><g><path stroke-linecap="butt" stroke-linejoin="miter" fill-opacity="0" stroke-miterlimit="4"/></g></g></g><g clip-path="url(#__lottie_element_687)" style="display: none;"><g style="display: none;"><g><path stroke-linecap="butt" stroke-linejoin="miter" fill-opacity="0" stroke-miterlimit="4"/></g></g></g></g></g></g></svg>