<svg width="42" height="34" viewBox="0 0 42 34" fill="none" xmlns="http://www.w3.org/2000/svg"><g clip-path="url(#clip0_334_225192)"><path fill-rule="evenodd" clip-rule="evenodd" d="M24.8461 15.9274L17.8332 19.9763L16.3162 17.3486L23.329 13.2998L24.8461 15.9274Z" fill="white"/><path fill-rule="evenodd" clip-rule="evenodd" d="M6.8148 9.98445C4.63797 11.2412 3.89214 14.0247 5.14893 16.2016L5.27901 16.4269C4.41076 16.3693 3.51657 16.5597 2.7064 17.0274C0.529574 18.2842 -0.216264 21.0677 1.04053 23.2445L5.59178 31.1275C6.84857 33.3044 9.63207 34.0502 11.8089 32.7934C12.6191 32.3257 13.231 31.6464 13.6153 30.8657L13.7457 31.0917C15.0025 33.2685 17.786 34.0143 19.9629 32.7575C22.1397 31.5008 22.8855 28.7172 21.6287 26.5404L13.0319 11.6503C11.7751 9.47349 8.99163 8.72766 6.8148 9.98445Z" fill="black" fill-opacity="0.3"/><path fill-rule="evenodd" clip-rule="evenodd" d="M21.7049 1.38844C19.5281 2.64523 18.7823 5.42873 20.0391 7.60556L28.6359 22.4957C29.8926 24.6725 32.6761 25.4183 34.853 24.1615C37.0298 22.9047 37.7756 20.1212 36.5188 17.9444L36.3892 17.7198C37.2575 17.7774 38.1519 17.5871 38.9622 17.1193C41.139 15.8625 41.8849 13.079 40.6281 10.9022L36.0768 3.01915C34.82 0.842324 32.0365 0.0964886 29.8597 1.35328C29.0494 1.82111 28.4374 2.50048 28.0531 3.28136L27.922 3.05431C26.6653 0.877481 23.8818 0.131645 21.7049 1.38844Z" fill="black" fill-opacity="0.3"/><rect opacity="0.2" x="2.81067" y="20.3154" width="3.03417" height="5.05694" rx="1.51708" transform="rotate(-30 2.81067 20.3154)" fill="white"/><rect opacity="0.2" x="31.1292" y="5.14355" width="3.03417" height="5.05694" rx="1.51708" transform="rotate(-30 31.1292 5.14355)" fill="white"/><rect opacity="0.2" x="22.0269" y="5.14355" width="3.03417" height="6.06833" rx="1.51708" transform="rotate(-30 22.0269 5.14355)" fill="white"/><rect opacity="0.2" x="6.85583" y="13.2363" width="3.03417" height="6.06833" rx="1.51708" transform="rotate(-30 6.85583 13.2363)" fill="white"/></g><defs><clipPath id="clip0_334_225192"><rect width="42" height="34" fill="white"/></clipPath></defs></svg>