<svg xmlns="http://www.w3.org/2000/svg" xmlns:xlink="http://www.w3.org/1999/xlink" viewBox="0 0 1080 1080" width="1080" height="1080" preserveAspectRatio="xMidYMid meet" style="width: 100%; height: 100%; transform: translate3d(0px, 0px, 0px); content-visibility: visible;"><defs><clipPath id="__lottie_element_462"><rect width="1080" height="1080" x="0" y="0"/></clipPath><g id="__lottie_element_475"><g style="display: none;"><path/></g></g><g id="__lottie_element_482"><g transform="matrix(0.9999995231628418,-0.0009773842757567763,0.0009773842757567763,0.9999995231628418,539.8809814453125,540.0089721679688)" opacity="1" style="display: block;"><g opacity="1" transform="matrix(1,0,0,1,0,0)"><path fill="rgb(249,94,134)" fill-opacity="1" d=" M172,-71.25 C172,-71.25 171,-9.258999824523926 171,5.491000175476074 C187.5,22.490999221801758 245,77.99099731445312 238,187.49099731445312 C223.04299926757812,421.4599914550781 386,409 386,409 C386,409 446,-56 446,-56 C446,-56 172,-71.25 172,-71.25z"/></g></g></g><mask id="__lottie_element_475_1" mask-type="alpha"><use xmlns:ns1="http://www.w3.org/1999/xlink" ns1:href="#__lottie_element_475"/></mask><g id="__lottie_element_487"><g transform="matrix(1,0,0,1,540,540)" opacity="1" style="display: block;"><path fill="rgb(0,188,255)" fill-opacity="1" d=" M254.5,77.5 C254.5,77.5 262.9909973144531,116.89299774169922 236.49200439453125,131.13400268554688 C236.4949951171875,131.38999938964844 236.5399932861328,131.57699584960938 236.5399932861328,131.57699584960938 C236.5399932861328,131.57699584960938 239.30599975585938,158.70899963378906 238.2530059814453,182.447998046875 C308.2550048828125,158.26699829101562 254.5,77.5 254.5,77.5z"/></g></g><mask id="__lottie_element_487_1" mask-type="alpha"><use xmlns:ns2="http://www.w3.org/1999/xlink" ns2:href="#__lottie_element_487"/></mask><g id="__lottie_element_504"><g style="display: none;"><g><path/></g></g></g><g id="__lottie_element_500"><g transform="matrix(1,0,0,1,242,616)" opacity="1" style="display: block;"><path fill="rgb(0,188,255)" fill-opacity="1" d=" M152.89700317382812,125.83999633789062 C152.89700317382812,125.83999633789062 134.60699462890625,159.33299255371094 97.48799896240234,154.19200134277344 C60,149 51.71699905395508,117.29000091552734 51.71699905395508,117.29000091552734 C51.71699905395508,117.29000091552734 22.726999282836914,186.25999450683594 86.46700286865234,203.28199768066406 C151.11399841308594,220.54600524902344 152.89700317382812,125.83999633789062 152.89700317382812,125.83999633789062z"/></g></g><g id="__lottie_element_499"><g style="display: none;"><path/></g></g><filter id="__lottie_element_514" filterUnits="objectBoundingBox" x="0%" y="0%" width="100%" height="100%"><feComponentTransfer in="SourceGraphic"><feFuncA type="table" tableValues="1.0 0.0"/></feComponentTransfer></filter><mask id="__lottie_element_499_2" mask-type="alpha"><g filter="url(#__lottie_element_514)"><rect width="1080" height="1080" x="0" y="0" fill="#ffffff" opacity="0"/><use xmlns:ns3="http://www.w3.org/1999/xlink" ns3:href="#__lottie_element_499"/></g></mask><mask id="__lottie_element_500_1" mask-type="alpha"><use xmlns:ns4="http://www.w3.org/1999/xlink" ns4:href="#__lottie_element_500"/></mask><g id="__lottie_element_521"><g transform="matrix(1,0,0,1,540,540)" opacity="1" style="display: block;"><path fill="rgb(61,61,61)" fill-opacity="1" d=" M-26.246000289916992,-66.94000244140625 C33.88100051879883,-84.55400085449219 76.91899871826172,-89.04499816894531 140.84500122070312,-92.2249984741211 C147.61700439453125,-58.856998443603516 158.3280029296875,-48.49300003051758 177.72500610351562,-49.257999420166016 C178.96200561523438,-40.47999954223633 181.2010040283203,-39.499000549316406 180.01199340820312,-15.890999794006348 C196.74200439453125,-37.09199905395508 225.9199981689453,-103.61100006103516 197.19000244140625,-169.78599548339844 C171.4709930419922,-225.66600036621094 107.5739974975586,-280.2699890136719 -28.364999771118164,-260.1390075683594 C-162.6300048828125,-231.01600646972656 -191.25,-148.94000244140625 -190.83200073242188,-99.61299896240234 C-190.41400146484375,-50.28499984741211 -166.31700134277344,-31.503999710083008 -139.07899475097656,-6.946000099182129 C-136.48699951171875,-0.8629999756813049 -80.9990005493164,23.663999557495117 -76.37899780273438,0.9810000061988831 C-34.40299987792969,0.09799999743700027 -23.29199981689453,-33.4370002746582 -26.246000289916992,-66.94000244140625z"/></g></g><mask id="__lottie_element_521_1" mask-type="alpha"><use xmlns:ns5="http://www.w3.org/1999/xlink" ns5:href="#__lottie_element_521"/></mask><g id="__lottie_element_527"><g style="display: none;"><path/></g></g><mask id="__lottie_element_527_1" mask-type="alpha"><use xmlns:ns6="http://www.w3.org/1999/xlink" ns6:href="#__lottie_element_527"/></mask><g id="__lottie_element_533"><g transform="matrix(1,0,0,1,540,540)" opacity="1" style="display: block;"><path fill="rgb(249,94,134)" fill-opacity="1" d=" M140.65899658203125,-18.89900016784668 C140.90899658203125,-18.64900016784668 134.53900146484375,0.3409999907016754 83.2300033569336,13.114999771118164 C40.03300094604492,23.8700008392334 6.823999881744385,14.366000175476074 6.823999881744385,14.366000175476074 C6.823999881744385,14.366000175476074 1.5800000429153442,16.867000579833984 10.069999694824219,29.121999740600586 C33.79100036621094,29.121999740600586 54.01599884033203,42.62799835205078 59.50899887084961,48.63100051879883 C66.3550033569336,56.111000061035156 76.73799896240234,39.375999450683594 88.2239990234375,31.37299919128418 C106.95099639892578,47.380001068115234 137.66299438476562,18.118000030517578 141.9080047607422,9.36400032043457 C146.1529998779297,0.6100000143051147 140.40899658203125,-19.14900016784668 140.65899658203125,-18.89900016784668z"/></g></g><clipPath id="__lottie_element_537"><path d="M0,0 L1080,0 L1080,1080 L0,1080z"/></clipPath><g id="__lottie_element_540"><g transform="matrix(1,0,0,1,540,540)" opacity="1" style="display: block;"><path fill="rgb(255,255,255)" fill-opacity="1" d=" M100.6709976196289,32.3650016784668 C91.5,31 91.52200317382812,20.5 91.52200317382812,11.673999786376953 C91.52200317382812,-6.5 99,-24.5 112.08399963378906,-28.509000778198242 C125.16799926757812,-32.518001556396484 134.99099731445312,-25.5 134.99099731445312,-10.17300033569336 C134.99099731445312,22.003999710083008 109.84200286865234,33.72999954223633 100.6709976196289,32.3650016784668z M29.672000885009766,46.38800048828125 C12.413000106811523,42.42599868774414 10.442999839782715,23.98900032043457 10.005999565124512,15.666000366210938 C9,-3.5 24.615999221801758,-14.763999938964844 41.55799865722656,-16.631999969482422 C58.5,-18.5 75.99700164794922,-4 75.99700164794922,14.663000106811523 C75.99700164794922,40.005001068115234 51.24800109863281,51.34000015258789 29.672000885009766,46.38800048828125z"/></g></g><mask id="__lottie_element_540_1" mask-type="alpha"><use xmlns:ns7="http://www.w3.org/1999/xlink" ns7:href="#__lottie_element_540"/></mask><mask id="__lottie_element_533_1" mask-type="alpha"><use xmlns:ns8="http://www.w3.org/1999/xlink" ns8:href="#__lottie_element_533"/></mask><filter id="__lottie_element_564" filterUnits="objectBoundingBox" x="0%" y="0%" width="100%" height="100%"><feComponentTransfer in="SourceGraphic"><feFuncA type="table" tableValues="1.0 0.0"/></feComponentTransfer></filter><mask id="__lottie_element_504_2" mask-type="alpha"><g filter="url(#__lottie_element_564)"><rect width="1080" height="1080" x="0" y="0" fill="#ffffff" opacity="0"/><use xmlns:ns9="http://www.w3.org/1999/xlink" ns9:href="#__lottie_element_504"/></g></mask><mask id="__lottie_element_482_1" mask-type="alpha"><use xmlns:ns10="http://www.w3.org/1999/xlink" ns10:href="#__lottie_element_482"/></mask></defs><g clip-path="url(#__lottie_element_462)"><g transform="matrix(1,0,0,1,540,540)" opacity="0.3" style="display: block;"><path fill="rgb(175,175,175)" fill-opacity="1" d=" M23.24799919128418,66.69400024414062 C135.50599670410156,66.69400024414062 226.50900268554688,146.5760040283203 226.50900268554688,245.11500549316406 C226.50900268554688,343.65399169921875 135.50599670410156,423.5360107421875 23.24799919128418,423.5360107421875 C-89.01000213623047,423.5360107421875 -180.01300048828125,343.65399169921875 -180.01300048828125,245.11500549316406 C-180.01300048828125,146.5760040283203 -89.01000213623047,66.69400024414062 23.24799919128418,66.69400024414062z"/></g><g transform="matrix(1,0,0,1,540,540)" opacity="1" style="display: block;"><path stroke-linecap="round" stroke-linejoin="round" fill-opacity="0" stroke="rgb(255,149,0)" stroke-opacity="1" stroke-width="60" d=" M20.25,332.75 C20.25,332.75 19.75,363 19.75,363 M93.75,325.5 C93.75,325.5 121.5,343 121.5,343"/></g><g style="display: none;"><path stroke-linecap="round" stroke-linejoin="miter" fill-opacity="0" stroke-miterlimit="4"/></g><g transform="matrix(1,0,0,1,540,540)" opacity="1" style="display: block;"><g opacity="1" transform="matrix(1,0,0,1,0,0)"><path fill="rgb(255,177,0)" fill-opacity="1" d=" M-188.83399963378906,159.28199768066406 C-188.83399963378906,159.28199768066406 -188.83399963378906,188.16099548339844 -188.83399963378906,188.16099548339844 C-188.89500427246094,189.51699829101562 -188.93699645996094,190.8769989013672 -188.96200561523438,192.24200439453125 C-190.70399475097656,289.2030029296875 -93.46700286865234,369.52099609375 24.496999740600586,371.6400146484375 C142.46200561523438,373.7590026855469 236.48399353027344,296.8760070800781 238.22500610351562,199.9149932861328 C238.24899291992188,198.61399841308594 238.25399780273438,197.3159942626953 238.24200439453125,196.02099609375 C238.24200439453125,196.02099609375 238.34300231933594,196.02099609375 238.34300231933594,196.02099609375 C238.34300231933594,196.02099609375 238.34300231933594,159.28199768066406 238.34300231933594,159.28199768066406 C238.34300231933594,41.32099914550781 -188.83399963378906,41.32099914550781 -188.83399963378906,159.28199768066406z"/></g><g opacity="1" transform="matrix(1,0,0,1,0,0)"><path fill="rgb(255,255,255)" fill-opacity="1" d=" M86,63.75 C13.5,71.5 20.82699966430664,137.3260040283203 23.5,157.25 C26.25,177.75 38.5,195.75 63.75,193.5 C91.95899963378906,190.98599243164062 97.5,165.75 97.25,156 C100.75,166.75 113.25,178.75 131,176 C170.5,168.75 154,107.25 154,107.25 C154,107.25 158.5,56 86,63.75z"/></g><g opacity="1" transform="matrix(1,0,0,1,0,0)"><path fill="rgb(255,255,255)" fill-opacity="1" d=" M102.7750015258789,197.88900756835938 C111.58999633789062,195.07200622558594 120.68699645996094,198.88900756835938 123.09200286865234,206.41400146484375 C125.49700164794922,213.93899536132812 120.29900360107422,222.32400512695312 111.48400115966797,225.14100646972656 C102.66899871826172,227.95799255371094 93.572998046875,224.13999938964844 91.16799926757812,216.61500549316406 C88.76300048828125,209.08999633789062 93.95999908447266,200.70599365234375 102.7750015258789,197.88900756835938z"/></g><g opacity="1" transform="matrix(1,0,0,1,0,0)"><path fill="rgb(255,149,0)" fill-opacity="1" d=" M138.4709930419922,90.87100219726562 C151.1219940185547,107.56500244140625 179.0260009765625,192.78599548339844 180.89599609375,276.531005859375 C181.0399932861328,282.98699951171875 187.9199981689453,285.5190124511719 192.0279998779297,281.3210144042969 C198.92599487304688,276.0369873046875 235.66600036621094,237.44400024414062 238.3419952392578,193.0590057373047 C238.3419952392578,193.0590057373047 238.3419952392578,159.28199768066406 238.3419952392578,159.28199768066406 C238.3419952392578,87.95800018310547 203.3820037841797,24.798999786376953 149.66200256347656,-13.994000434875488 C149.66200256347656,-13.994000434875488 138.4709930419922,90.87100219726562 138.4709930419922,90.87100219726562z"/></g><g opacity="1" transform="matrix(1,0,0,1,0,0)"><path fill="rgb(255,149,0)" fill-opacity="1" d=" M-188.83399963378906,159.2790069580078 C-188.83399963378906,45.119998931884766 -99.27300262451172,-48.12099838256836 13.418999671936035,-54.01300048828125 C13.418999671936035,-54.01300048828125 26.843000411987305,130.5240020751953 26.843000411987305,130.5240020751953 C26.843000411987305,130.5240020751953 24.68000030517578,223.6750030517578 38.619998931884766,325.8599853515625 C38.5260009765625,335.5790100097656 34.77799987792969,346.7349853515625 22.844999313354492,346.72100830078125 C-100.41200256347656,347.87799072265625 -150.9530029296875,266.28399658203125 -178.55599975585938,234.4810028076172 C-187.44500732421875,212.4810028076172 -188.83399963378906,159.2790069580078 -188.83399963378906,159.2790069580078z"/></g></g><g style="display: none;"><g><g><path stroke-linecap="round" stroke-linejoin="miter" fill-opacity="0" stroke-miterlimit="10"/></g><g><path/></g><g><path/></g><g><path stroke-linecap="round" stroke-linejoin="miter" fill-opacity="0" stroke-miterlimit="10"/></g><g><path/></g></g><path stroke-linecap="round" stroke-linejoin="miter" fill-opacity="0" stroke-miterlimit="4"/></g><g style="display: none;"><path/></g><g style="display: none;"><path/></g><g mask="url(#__lottie_element_482_1)" style="display: block;"><g transform="matrix(1,0,0,1,540,540)" opacity="1"><g opacity="0" transform="matrix(1,0,0,1,176.5,96.5)"><path fill="rgb(249,94,134)" fill-opacity="1" d=" M177.5,-170.5 C177.5,-170.5 177.5,170.5 177.5,170.5 C177.5,170.5 -177.5,170.5 -177.5,170.5 C-177.5,170.5 -177.5,-170.5 -177.5,-170.5 C-177.5,-170.5 177.5,-170.5 177.5,-170.5z"/></g><path stroke-linecap="round" stroke-linejoin="miter" fill-opacity="0" stroke-miterlimit="4" stroke="rgb(255,177,0)" stroke-opacity="1" stroke-width="73.293" d=" M228.96499633789062,137.3000030517578 C201.41299438476562,65.31500244140625 179.76100158691406,42.39899826049805 149.8249969482422,29.167999267578125"/></g></g><g transform="matrix(1,0,0,1,540,540)" opacity="1" style="display: block;"><path fill="rgb(255,203,163)" fill-opacity="1" d=" M-131.4080047607422,-31.23200035095215 C-131.4080047607422,-31.23200035095215 -131.4080047607422,21.589000701904297 -131.4080047607422,21.589000701904297 C-131.4080047607422,21.589000701904297 -131.38800048828125,21.589000701904297 -131.38800048828125,21.589000701904297 C-131.4010009765625,22.240999221801758 -131.4080047607422,22.89299964904785 -131.4080047607422,23.547000885009766 C-131.4080047607422,91.15499877929688 -61.694000244140625,145.96299743652344 24.302000045776367,145.96299743652344 C110.29900360107422,145.96299743652344 180.01199340820312,91.15499877929688 180.01199340820312,23.547000885009766 C180.01199340820312,22.89299964904785 180.00599670410156,22.240999221801758 179.9929962158203,21.589000701904297 C179.9929962158203,21.589000701904297 180.01199340820312,21.589000701904297 180.01199340820312,21.589000701904297 C180.01199340820312,21.589000701904297 180.01199340820312,-31.23200035095215 180.01199340820312,-31.23200035095215 C180.01199340820312,-232 -131.4080047607422,-117.22799682617188 -131.4080047607422,-31.23200035095215z"/></g><g mask="url(#__lottie_element_533_1)" style="display: block;"><g clip-path="url(#__lottie_element_537)" transform="matrix(1,0,0,1,0,0)" opacity="1"><g mask="url(#__lottie_element_540_1)" style="display: block;"><g transform="matrix(1,0,0,1,540,540)" opacity="1"><g opacity="1" transform="matrix(1,0,0,1,82,38.5)"><path fill="rgb(255,255,255)" fill-opacity="1" d=" M210,-133.5 C210,-133.5 210,133.5 210,133.5 C210,133.5 -210,133.5 -210,133.5 C-210,133.5 -210,-133.5 -210,-133.5 C-210,-133.5 210,-133.5 210,-133.5z"/></g><path fill="rgb(61,61,61)" fill-opacity="1" d=" M113.14900207519531,-5.51200008392334 C118.72599792480469,-3.7760000228881836 121.43399810791016,3.4549999237060547 119.197998046875,10.638999938964844 C116.96199798583984,17.822999954223633 110.62899780273438,22.239999771118164 105.052001953125,20.503999710083008 C99.4749984741211,18.76799964904785 96.76699829101562,11.536999702453613 99.00299835205078,4.353000164031982 C101.23899841308594,-2.8310000896453857 107.5719985961914,-7.248000144958496 113.14900207519531,-5.51200008392334z M53.82899856567383,5.951000213623047 C60.452999114990234,6.328999996185303 65.4749984741211,12.723999977111816 65.0469970703125,20.236000061035156 C64.61900329589844,27.74799919128418 58.9010009765625,33.53200149536133 52.277000427246094,33.15399932861328 C45.65299987792969,32.7760009765625 40.630001068115234,26.3799991607666 41.05799865722656,18.868000030517578 C41.486000061035156,11.355999946594238 47.20500183105469,5.572999954223633 53.82899856567383,5.951000213623047z"/></g></g></g></g><g transform="matrix(1,0,0,1,540,540)" opacity="1" style="display: block;"><g opacity="1" transform="matrix(1,0,0,1,0,0)"><path stroke-linecap="round" stroke-linejoin="round" fill-opacity="0" stroke="rgb(61,61,61)" stroke-opacity="1" stroke-width="23.174" d=" M124.66699981689453,-31.740999221801758 C110.19599914550781,-43.04399871826172 95.7239990234375,-35.25899887084961 95.7239990234375,-35.25899887084961 M15.243000030517578,-34.867000579833984 C24.68000030517578,-46.78900146484375 41.9630012512207,-48.92599868774414 55.33000183105469,-45.6879997253418"/></g><g opacity="1" transform="matrix(1,0,0,1,0,0)"><path fill="rgb(232,150,101)" fill-opacity="1" d=" M99.99700164794922,46.29499816894531 C100.59200286865234,53.382999420166016 95.3280029296875,59.61000061035156 88.24099731445312,60.20600128173828 C81.15399932861328,60.80099868774414 74.9260025024414,55.5369987487793 74.33100128173828,48.45000076293945 C73.73600006103516,41.362998962402344 81.43000030517578,25.290000915527344 83.8489990234375,25.086999893188477 C86.26799774169922,24.885000228881836 99.4010009765625,39.20800018310547 99.99700164794922,46.29499816894531z"/></g><g opacity="1" transform="matrix(1,0,0,1,0,0)"><path stroke-linecap="round" stroke-linejoin="round" fill-opacity="0" stroke="rgb(247,178,134)" stroke-opacity="1" stroke-width="6.952" d=" M-24.131999969482422,2.196000099182129 C-24.131999969482422,2.196000099182129 -5.396999835968018,18.15999984741211 -5.396999835968018,18.15999984741211 C-5.396999835968018,18.15999984741211 -28.993000030517578,21.881999969482422 -28.993000030517578,21.881999969482422 M157.90199279785156,-28.777999877929688 C157.90199279785156,-28.777999877929688 143.63600158691406,-14.163000106811523 143.63600158691406,-14.163000106811523 C143.63600158691406,-14.163000106811523 157.90199279785156,-13.513999938964844 157.90199279785156,-13.513999938964844"/></g><g opacity="1" transform="matrix(1,0,0,1,0,0)"><path stroke-linecap="round" stroke-linejoin="miter" fill-opacity="0" stroke-miterlimit="4" stroke="rgb(247,178,134)" stroke-opacity="1" stroke-width="5.793" d=" M45.340999603271484,96.25599670410156 C56.14500045776367,107.23400115966797 73.05400085449219,108.60600280761719 86.01599884033203,99.55699920654297"/></g><g opacity="1" transform="matrix(1,0,0,1,0,0)"><path stroke-linecap="round" stroke-linejoin="miter" fill-opacity="0" stroke-miterlimit="4" stroke="rgb(232,150,101)" stroke-opacity="1" stroke-width="7.064" d=" M91.05899810791016,73.71099853515625 C75.13800048828125,81.76100158691406 44.05799865722656,76.8499984741211 29.179000854492188,53.76900100708008"/></g></g><g mask="url(#__lottie_element_527_1)" style="display: none;"><g><g><path/></g><path/></g></g><g mask="url(#__lottie_element_521_1)" style="display: block;"><g transform="matrix(1.1799999475479126,0,0,1.1799999475479126,541.1885375976562,589.0941162109375)" opacity="1"><g opacity="1" transform="matrix(1,0,0,1,11.281000137329102,-132.70700073242188)"><path fill="rgb(61,61,61)" fill-opacity="1" d=" M269.9154968261719,-192.79649353027344 C269.9154968261719,-192.79649353027344 269.9154968261719,192.79649353027344 269.9154968261719,192.79649353027344 C269.9154968261719,192.79649353027344 -269.9154968261719,192.79649353027344 -269.9154968261719,192.79649353027344 C-269.9154968261719,192.79649353027344 -269.9154968261719,-192.79649353027344 -269.9154968261719,-192.79649353027344 C-269.9154968261719,-192.79649353027344 269.9154968261719,-192.79649353027344 269.9154968261719,-192.79649353027344z"/></g><path fill="rgb(49,49,49)" fill-opacity="1" d=" M-6.426000118255615,-340.20599365234375 C30.83099937438965,-340.1080017089844 60.95500183105469,-309.82501220703125 60.856998443603516,-272.5679931640625 C60.75899887084961,-235.31100463867188 30.476999282836914,-205.18699645996094 -6.78000020980835,-205.28500366210938 C-44.0369987487793,-205.38299560546875 -74.16200256347656,-235.6649932861328 -74.06400299072266,-272.9219970703125 C-73.96600341796875,-310.1789855957031 -43.68299865722656,-340.3039855957031 -6.426000118255615,-340.20599365234375z"/></g></g><g transform="matrix(1,0,0,1,540,540)" opacity="1" style="display: block;"><path fill="rgb(159,159,159)" fill-opacity="1" d=" M180.01199340820312,-15.890999794006348 C190.656005859375,-28.69300079345703 199.75799560546875,-44.00899887084961 205.61300659179688,-75.80799865722656 C198.48199462890625,-55 189.29600524902344,-51.444000244140625 177.72500610351562,-49.257999420166016 C177.72500610351562,-49.257999420166016 180.01199340820312,-15.890999794006348 180.01199340820312,-15.890999794006348z M-76.37899780273438,0.9810000061988831 C-126.63400268554688,-8.890999794006348 -170.3419952392578,-27.156999588012695 -190.25999450683594,-87.25900268554688 C-190.25999450683594,-29.222000122070312 -160.59300231933594,-4.888999938964844 -142.61399841308594,9.125 C-112,34.433998107910156 -81.27100372314453,23.80699920654297 -76.37899780273438,0.9810000061988831z"/></g><g mask="url(#__lottie_element_504_2)" style="display: block;"><g transform="matrix(1,0,0,1,242,616)" opacity="1"><g opacity="0" transform="matrix(1,0,0,1,100,128)"><path fill="rgb(249,94,134)" fill-opacity="1" d=" M197,-195 C197,-195 197,195 197,195 C197,195 -197,195 -197,195 C-197,195 -197,-195 -197,-195 C-197,-195 197,-195 197,-195z"/></g><path stroke-linecap="round" stroke-linejoin="miter" fill-opacity="0" stroke-miterlimit="4" stroke="rgb(255,177,0)" stroke-opacity="1" stroke-width="73.293" d=" M100.96499633789062,157.3000030517578 C100,92 130,51 149.8249969482422,29.167999267578125"/></g></g><g mask="url(#__lottie_element_500_1)" style="display: block;"><g transform="matrix(1,0,0,1,242,616)" opacity="1"><g opacity="0" transform="matrix(1,0,0,1,100,128)"><path fill="rgb(249,94,134)" fill-opacity="1" d=" M197,-195 C197,-195 197,195 197,195 C197,195 -197,195 -197,195 C-197,195 -197,-195 -197,-195 C-197,-195 197,-195 197,-195z"/></g><path stroke-linecap="round" stroke-linejoin="miter" fill-opacity="0" stroke-miterlimit="4" stroke="rgb(255,203,163)" stroke-opacity="1" stroke-width="73.293" d=" M100.96499633789062,157.3000030517578 C100,92 130,51 149.8249969482422,29.167999267578125"/></g></g><g mask="url(#__lottie_element_499_2)" style="display: none;"><g><g><g><path stroke-linecap="round" stroke-linejoin="miter" fill-opacity="0" stroke-miterlimit="10"/></g><g><path/></g><g><path/></g><g><path stroke-linecap="round" stroke-linejoin="miter" fill-opacity="0" stroke-miterlimit="10"/></g><g><path/></g></g><path stroke-linecap="round" stroke-linejoin="miter" fill-opacity="0" stroke-miterlimit="4"/></g></g><g transform="matrix(1,0,0,1,540,540)" opacity="1" style="display: block;"><path fill="rgb(61,61,61)" fill-opacity="1" d=" M-6.426000118255615,-340.20599365234375 C30.83099937438965,-340.1080017089844 60.95500183105469,-309.82501220703125 60.856998443603516,-272.5679931640625 C60.75899887084961,-235.31100463867188 30.476999282836914,-205.18699645996094 -6.78000020980835,-205.28500366210938 C-44.0369987487793,-205.38299560546875 -74.16200256347656,-235.6649932861328 -74.06400299072266,-272.9219970703125 C-73.96600341796875,-310.1789855957031 -43.68299865722656,-340.3039855957031 -6.426000118255615,-340.20599365234375z"/></g><g style="display: none;"><path stroke-linecap="round" stroke-linejoin="miter" fill-opacity="0" stroke-miterlimit="10"/><g><path stroke-linecap="round" stroke-linejoin="round" fill-opacity="0"/></g></g><g mask="url(#__lottie_element_487_1)" style="display: block;"><g transform="matrix(1,0,0,1,540,540)" opacity="1"><g opacity="0" transform="matrix(1,0,0,1,236.5,145.5)"><path fill="rgb(249,94,134)" fill-opacity="1" d=" M87.5,-76.5 C87.5,-76.5 87.5,76.5 87.5,76.5 C87.5,76.5 -87.5,76.5 -87.5,76.5 C-87.5,76.5 -87.5,-76.5 -87.5,-76.5 C-87.5,-76.5 87.5,-76.5 87.5,-76.5z"/></g><path stroke-linecap="round" stroke-linejoin="miter" fill-opacity="0" stroke-miterlimit="4" stroke="rgb(255,203,163)" stroke-opacity="1" stroke-width="73.293" d=" M228.96499633789062,137.3000030517578 C201.41299438476562,65.31500244140625 179.76100158691406,42.39899826049805 149.8249969482422,29.167999267578125"/></g></g><g mask="url(#__lottie_element_475_1)" style="display: none;"><g><path stroke-linecap="round" stroke-linejoin="round" fill-opacity="0"/></g></g><g style="display: none;"><path stroke-linecap="round" stroke-linejoin="round" fill-opacity="0"/></g></g></svg>