<svg xmlns="http://www.w3.org/2000/svg" xmlns:xlink="http://www.w3.org/1999/xlink" viewBox="0 0 100 50" width="100" height="50" preserveAspectRatio="xMidYMid meet" style="width: 100%; height: 100%; transform: translate3d(0px, 0px, 0px); content-visibility: visible;"><defs><clipPath id="__lottie_element_1110"><rect width="100" height="50" x="0" y="0"/></clipPath><g id="__lottie_element_1112"><g clip-path="url(#__lottie_element_1113)" style="display: none;" transform="matrix(0.06025000289082527,0,0,0.06025000289082527,51.7501220703125,15.177936553955078)" opacity="0"><g style="display: none;" transform="matrix(2.7491745948791504,0,0,2.7491745948791504,-397.5181579589844,1302.458740234375)" opacity="0.06317476593355693"><g opacity="1" transform="matrix(1,0,0,1,0,0)"><path stroke-linecap="round" stroke-linejoin="miter" fill-opacity="0" stroke-miterlimit="4" stroke="rgb(173,231,86)" stroke-opacity="1" stroke-width="18" d=" M286.53900146484375,-323 C286.51300048828125,-323 286.5,-323 286.5,-323"/></g><g opacity="1" transform="matrix(1,0,0,1,0,0)"><path stroke-linecap="round" stroke-linejoin="miter" fill-opacity="0" stroke-miterlimit="4" stroke="rgb(173,231,86)" stroke-opacity="1" stroke-width="18" d=" M331.5,-283.53399658203125 C331.5,-283.510986328125 331.5,-283.5 331.5,-283.5"/></g><g opacity="1" transform="matrix(1,0,0,1,0,0)"><path stroke-linecap="round" stroke-linejoin="miter" fill-opacity="0" stroke-miterlimit="4" stroke="rgb(173,231,86)" stroke-opacity="1" stroke-width="18" d=" M370.96600341796875,-323 C370.989013671875,-323 371,-323 371,-323"/></g><g opacity="1" transform="matrix(1,0,0,1,0,0)"><path stroke-linecap="round" stroke-linejoin="miter" fill-opacity="0" stroke-miterlimit="4" stroke="rgb(173,231,86)" stroke-opacity="1" stroke-width="18" d=" M331.5,-359.4679870605469 C331.5,-359.489013671875 331.5,-359.5 331.5,-359.5"/></g></g><g style="display: block;" transform="matrix(2.200000047683716,0,0,2.200000047683716,-215.3636016845703,1133.22509765625)" opacity="1"><g opacity="1" transform="matrix(1,0,0,1,0,0)"><path stroke-linecap="round" stroke-linejoin="miter" fill-opacity="0" stroke-miterlimit="4" stroke="rgb(255,255,255)" stroke-opacity="1" stroke-width="18" d="M0 0"/></g><g opacity="1" transform="matrix(1,0,0,1,0,0)"><path stroke-linecap="round" stroke-linejoin="miter" fill-opacity="0" stroke-miterlimit="4" stroke="rgb(255,255,255)" stroke-opacity="1" stroke-width="18" d="M0 0"/></g><g opacity="1" transform="matrix(1,0,0,1,0,0)"><path stroke-linecap="round" stroke-linejoin="miter" fill-opacity="0" stroke-miterlimit="4" stroke="rgb(255,255,255)" stroke-opacity="1" stroke-width="18" d="M0 0"/></g><g opacity="1" transform="matrix(1,0,0,1,0,0)"><path stroke-linecap="round" stroke-linejoin="miter" fill-opacity="0" stroke-miterlimit="4" stroke="rgb(255,255,255)" stroke-opacity="1" stroke-width="18" d="M0 0"/></g></g></g></g><clipPath id="__lottie_element_1113"><path d="M0,0 L1024,0 L1024,768 L0,768z"/></clipPath><radialGradient id="__lottie_element_1125" spreadMethod="pad" gradientUnits="userSpaceOnUse" cx="-108.05500030517578" cy="-52.736000061035156" r="247.39877243994374" fx="-108.05500030517578" fy="-52.736000061035156"><stop offset="0%" stop-color="rgb(37,255,85)"/><stop offset="25%" stop-color="rgb(37,196,170)"/><stop offset="50%" stop-color="rgb(37,138,255)"/><stop offset="75%" stop-color="rgb(145,111,255)"/><stop offset="100%" stop-color="rgb(252,85,255)"/></radialGradient><mask id="__lottie_element_1112_1" mask-type="alpha"><use xmlns:ns1="http://www.w3.org/1999/xlink" ns1:href="#__lottie_element_1112"/></mask><g id="__lottie_element_1126"><g clip-path="url(#__lottie_element_1127)" style="display: none;" transform="matrix(0.08118999749422073,0,0,0.08118999749422073,-25.569278717041016,9.53003978729248)" opacity="0"><g style="display: block;" transform="matrix(2.25,0,0,2.25,-231.947998046875,1109.3687744140625)" opacity="1"><g opacity="1" transform="matrix(1,0,0,1,0,0)"><path stroke-linecap="round" stroke-linejoin="miter" fill-opacity="0" stroke-miterlimit="4" stroke="rgb(206,130,255)" stroke-opacity="1" stroke-width="18" d="M0 0"/></g><g opacity="1" transform="matrix(1,0,0,1,0,0)"><path stroke-linecap="round" stroke-linejoin="miter" fill-opacity="0" stroke-miterlimit="4" stroke="rgb(206,130,255)" stroke-opacity="1" stroke-width="18" d="M0 0"/></g><g opacity="1" transform="matrix(1,0,0,1,0,0)"><path stroke-linecap="round" stroke-linejoin="miter" fill-opacity="0" stroke-miterlimit="4" stroke="rgb(206,130,255)" stroke-opacity="1" stroke-width="18" d="M0 0"/></g><g opacity="1" transform="matrix(1,0,0,1,0,0)"><path stroke-linecap="round" stroke-linejoin="miter" fill-opacity="0" stroke-miterlimit="4" stroke="rgb(206,130,255)" stroke-opacity="1" stroke-width="18" d="M0 0"/></g></g><g style="display: block;" transform="matrix(1.7999999523162842,0,0,1.7999999523162842,-82.68841552734375,964.074951171875)" opacity="1"><g opacity="1" transform="matrix(1,0,0,1,0,0)"><path stroke-linecap="round" stroke-linejoin="miter" fill-opacity="0" stroke-miterlimit="4" stroke="rgb(71,215,255)" stroke-opacity="1" stroke-width="18" d="M0 0"/></g><g opacity="1" transform="matrix(1,0,0,1,0,0)"><path stroke-linecap="round" stroke-linejoin="miter" fill-opacity="0" stroke-miterlimit="4" stroke="rgb(71,215,255)" stroke-opacity="1" stroke-width="18" d="M0 0"/></g><g opacity="1" transform="matrix(1,0,0,1,0,0)"><path stroke-linecap="round" stroke-linejoin="miter" fill-opacity="0" stroke-miterlimit="4" stroke="rgb(71,215,255)" stroke-opacity="1" stroke-width="18" d="M0 0"/></g><g opacity="1" transform="matrix(1,0,0,1,0,0)"><path stroke-linecap="round" stroke-linejoin="miter" fill-opacity="0" stroke-miterlimit="4" stroke="rgb(71,215,255)" stroke-opacity="1" stroke-width="18" d="M0 0"/></g></g></g></g><clipPath id="__lottie_element_1127"><path d="M0,0 L1024,0 L1024,768 L0,768z"/></clipPath><radialGradient id="__lottie_element_1139" spreadMethod="pad" gradientUnits="userSpaceOnUse" cx="-108.05500030517578" cy="-52.736000061035156" r="247.39877243994374" fx="-108.05500030517578" fy="-52.736000061035156"><stop offset="0%" stop-color="rgb(37,255,85)"/><stop offset="25%" stop-color="rgb(37,196,170)"/><stop offset="50%" stop-color="rgb(37,138,255)"/><stop offset="75%" stop-color="rgb(145,111,255)"/><stop offset="100%" stop-color="rgb(252,85,255)"/></radialGradient><mask id="__lottie_element_1126_1" mask-type="alpha"><use xmlns:ns2="http://www.w3.org/1999/xlink" ns2:href="#__lottie_element_1126"/></mask><g id="__lottie_element_1141"><g clip-path="url(#__lottie_element_1142)" style="display: block;" transform="matrix(0.07200000435113907,0,0,0.07200000435113907,-20.814002990722656,-16.05299949645996)" opacity="0"><g style="display: block;" transform="matrix(2.25,0,0,2.25,-231.947998046875,1109.3687744140625)" opacity="1"><g opacity="1" transform="matrix(1,0,0,1,0,0)"><path stroke-linecap="round" stroke-linejoin="miter" fill-opacity="0" stroke-miterlimit="4" stroke="rgb(255,217,0)" stroke-opacity="1" stroke-width="18" d="M0 0"/></g><g opacity="1" transform="matrix(1,0,0,1,0,0)"><path stroke-linecap="round" stroke-linejoin="miter" fill-opacity="0" stroke-miterlimit="4" stroke="rgb(255,217,0)" stroke-opacity="1" stroke-width="18" d="M0 0"/></g><g opacity="1" transform="matrix(1,0,0,1,0,0)"><path stroke-linecap="round" stroke-linejoin="miter" fill-opacity="0" stroke-miterlimit="4" stroke="rgb(255,217,0)" stroke-opacity="1" stroke-width="18" d="M0 0"/></g><g opacity="1" transform="matrix(1,0,0,1,0,0)"><path stroke-linecap="round" stroke-linejoin="miter" fill-opacity="0" stroke-miterlimit="4" stroke="rgb(255,217,0)" stroke-opacity="1" stroke-width="18" d="M0 0"/></g></g><g style="display: block;" transform="matrix(1.7999999523162842,0,0,1.7999999523162842,-82.68841552734375,964.074951171875)" opacity="1"><g opacity="1" transform="matrix(1,0,0,1,0,0)"><path stroke-linecap="round" stroke-linejoin="miter" fill-opacity="0" stroke-miterlimit="4" stroke="rgb(255,120,120)" stroke-opacity="1" stroke-width="18" d="M0 0"/></g><g opacity="1" transform="matrix(1,0,0,1,0,0)"><path stroke-linecap="round" stroke-linejoin="miter" fill-opacity="0" stroke-miterlimit="4" stroke="rgb(255,120,120)" stroke-opacity="1" stroke-width="18" d="M0 0"/></g><g opacity="1" transform="matrix(1,0,0,1,0,0)"><path stroke-linecap="round" stroke-linejoin="miter" fill-opacity="0" stroke-miterlimit="4" stroke="rgb(255,120,120)" stroke-opacity="1" stroke-width="18" d="M0 0"/></g><g opacity="1" transform="matrix(1,0,0,1,0,0)"><path stroke-linecap="round" stroke-linejoin="miter" fill-opacity="0" stroke-miterlimit="4" stroke="rgb(255,120,120)" stroke-opacity="1" stroke-width="18" d="M0 0"/></g></g></g></g><clipPath id="__lottie_element_1142"><path d="M0,0 L1024,0 L1024,768 L0,768z"/></clipPath><radialGradient id="__lottie_element_1154" spreadMethod="pad" gradientUnits="userSpaceOnUse" cx="-108.05500030517578" cy="-52.736000061035156" r="247.39877243994374" fx="-108.05500030517578" fy="-52.736000061035156"><stop offset="0%" stop-color="rgb(37,255,85)"/><stop offset="25%" stop-color="rgb(37,196,170)"/><stop offset="50%" stop-color="rgb(37,138,255)"/><stop offset="75%" stop-color="rgb(145,111,255)"/><stop offset="100%" stop-color="rgb(252,85,255)"/></radialGradient><mask id="__lottie_element_1141_1" mask-type="alpha"><use xmlns:ns3="http://www.w3.org/1999/xlink" ns3:href="#__lottie_element_1141"/></mask><g id="__lottie_element_1155"><g clip-path="url(#__lottie_element_1156)" style="display: none;" transform="matrix(0.07751999795436859,0,0,0.07751999795436859,50.55976104736328,-10.942679405212402)" opacity="0"><g style="display: block;" transform="matrix(2.25,0,0,2.25,-231.947998046875,1109.3687744140625)" opacity="1"><g opacity="1" transform="matrix(1,0,0,1,0,0)"><path stroke-linecap="round" stroke-linejoin="miter" fill-opacity="0" stroke-miterlimit="4" stroke="rgb(255,217,0)" stroke-opacity="1" stroke-width="18" d="M0 0"/></g><g opacity="1" transform="matrix(1,0,0,1,0,0)"><path stroke-linecap="round" stroke-linejoin="miter" fill-opacity="0" stroke-miterlimit="4" stroke="rgb(255,217,0)" stroke-opacity="1" stroke-width="18" d="M0 0"/></g><g opacity="1" transform="matrix(1,0,0,1,0,0)"><path stroke-linecap="round" stroke-linejoin="miter" fill-opacity="0" stroke-miterlimit="4" stroke="rgb(255,217,0)" stroke-opacity="1" stroke-width="18" d="M0 0"/></g><g opacity="1" transform="matrix(1,0,0,1,0,0)"><path stroke-linecap="round" stroke-linejoin="miter" fill-opacity="0" stroke-miterlimit="4" stroke="rgb(255,217,0)" stroke-opacity="1" stroke-width="18" d="M0 0"/></g></g><g style="display: block;" transform="matrix(1.7999999523162842,0,0,1.7999999523162842,-82.68841552734375,964.074951171875)" opacity="1"><g opacity="1" transform="matrix(1,0,0,1,0,0)"><path stroke-linecap="round" stroke-linejoin="miter" fill-opacity="0" stroke-miterlimit="4" stroke="rgb(255,120,120)" stroke-opacity="1" stroke-width="18" d="M0 0"/></g><g opacity="1" transform="matrix(1,0,0,1,0,0)"><path stroke-linecap="round" stroke-linejoin="miter" fill-opacity="0" stroke-miterlimit="4" stroke="rgb(255,120,120)" stroke-opacity="1" stroke-width="18" d="M0 0"/></g><g opacity="1" transform="matrix(1,0,0,1,0,0)"><path stroke-linecap="round" stroke-linejoin="miter" fill-opacity="0" stroke-miterlimit="4" stroke="rgb(255,120,120)" stroke-opacity="1" stroke-width="18" d="M0 0"/></g><g opacity="1" transform="matrix(1,0,0,1,0,0)"><path stroke-linecap="round" stroke-linejoin="miter" fill-opacity="0" stroke-miterlimit="4" stroke="rgb(255,120,120)" stroke-opacity="1" stroke-width="18" d="M0 0"/></g></g></g></g><clipPath id="__lottie_element_1156"><path d="M0,0 L1024,0 L1024,768 L0,768z"/></clipPath><radialGradient id="__lottie_element_1168" spreadMethod="pad" gradientUnits="userSpaceOnUse" cx="-108.05500030517578" cy="-52.736000061035156" r="247.39877243994374" fx="-108.05500030517578" fy="-52.736000061035156"><stop offset="0%" stop-color="rgb(37,255,85)"/><stop offset="25%" stop-color="rgb(37,196,170)"/><stop offset="50%" stop-color="rgb(37,138,255)"/><stop offset="75%" stop-color="rgb(145,111,255)"/><stop offset="100%" stop-color="rgb(252,85,255)"/></radialGradient><mask id="__lottie_element_1155_1" mask-type="alpha"><use xmlns:ns4="http://www.w3.org/1999/xlink" ns4:href="#__lottie_element_1155"/></mask></defs><g clip-path="url(#__lottie_element_1110)"><g mask="url(#__lottie_element_1155_1)" style="display: block;"><g transform="matrix(0.3002200126647949,0,0,0.1775600016117096,50,26.5)" opacity="1"><g opacity="1" transform="matrix(1,0,0,1,-0.09700000286102295,0.5870000123977661)"><path fill="url(#__lottie_element_1168)" fill-opacity="1" d=" M177.9810028076172,-158.76300048828125 C177.9810028076172,-158.76300048828125 -177.9810028076172,-158.76300048828125 -177.9810028076172,-158.76300048828125 C-177.9810028076172,-158.76300048828125 -177.9810028076172,158.76300048828125 -177.9810028076172,158.76300048828125 C-177.9810028076172,158.76300048828125 177.9810028076172,158.76300048828125 177.9810028076172,158.76300048828125 C177.9810028076172,158.76300048828125 177.9810028076172,-158.76300048828125 177.9810028076172,-158.76300048828125z"/></g></g></g><g mask="url(#__lottie_element_1141_1)" style="display: block;"><g transform="matrix(0.3002200126647949,0,0,0.1775600016117096,50,26.5)" opacity="1"><g opacity="1" transform="matrix(1,0,0,1,-0.09700000286102295,0.5870000123977661)"><path fill="url(#__lottie_element_1154)" fill-opacity="1" d=" M177.9810028076172,-158.76300048828125 C177.9810028076172,-158.76300048828125 -177.9810028076172,-158.76300048828125 -177.9810028076172,-158.76300048828125 C-177.9810028076172,-158.76300048828125 -177.9810028076172,158.76300048828125 -177.9810028076172,158.76300048828125 C-177.9810028076172,158.76300048828125 177.9810028076172,158.76300048828125 177.9810028076172,158.76300048828125 C177.9810028076172,158.76300048828125 177.9810028076172,-158.76300048828125 177.9810028076172,-158.76300048828125z"/></g></g></g><g mask="url(#__lottie_element_1126_1)" style="display: block;"><g transform="matrix(0.3002200126647949,0,0,0.1775600016117096,50,26.5)" opacity="1"><g opacity="1" transform="matrix(1,0,0,1,-0.09700000286102295,0.5870000123977661)"><path fill="url(#__lottie_element_1139)" fill-opacity="1" d=" M177.9810028076172,-158.76300048828125 C177.9810028076172,-158.76300048828125 -177.9810028076172,-158.76300048828125 -177.9810028076172,-158.76300048828125 C-177.9810028076172,-158.76300048828125 -177.9810028076172,158.76300048828125 -177.9810028076172,158.76300048828125 C-177.9810028076172,158.76300048828125 177.9810028076172,158.76300048828125 177.9810028076172,158.76300048828125 C177.9810028076172,158.76300048828125 177.9810028076172,-158.76300048828125 177.9810028076172,-158.76300048828125z"/></g></g></g><g mask="url(#__lottie_element_1112_1)" style="display: block;"><g transform="matrix(0.3002200126647949,0,0,0.1775600016117096,50,26.5)" opacity="1"><g opacity="1" transform="matrix(1,0,0,1,-0.09700000286102295,0.5870000123977661)"><path fill="url(#__lottie_element_1125)" fill-opacity="1" d=" M177.9810028076172,-158.76300048828125 C177.9810028076172,-158.76300048828125 -177.9810028076172,-158.76300048828125 -177.9810028076172,-158.76300048828125 C-177.9810028076172,-158.76300048828125 -177.9810028076172,158.76300048828125 -177.9810028076172,158.76300048828125 C-177.9810028076172,158.76300048828125 177.9810028076172,158.76300048828125 177.9810028076172,158.76300048828125 C177.9810028076172,158.76300048828125 177.9810028076172,-158.76300048828125 177.9810028076172,-158.76300048828125z"/></g></g></g></g></svg>