<svg xmlns="http://www.w3.org/2000/svg" xmlns:xlink="http://www.w3.org/1999/xlink" viewBox="0 0 1080 1080" width="1080" height="1080" preserveAspectRatio="xMidYMid meet" style="width: 100%; height: 100%; transform: translate3d(0px, 0px, 0px); content-visibility: visible;"><defs><clipPath id="__lottie_element_2"><rect width="1080" height="1080" x="0" y="0"/></clipPath><g id="__lottie_element_27"><g transform="matrix(1,0,0,1,539.999755859375,539.99951171875)" opacity="1" style="display: block;"><path fill="rgb(255,255,255)" fill-opacity="1" d=" M-47,38.439998626708984 C-45.5,25 -41.06700134277344,-2.0220000743865967 4.295000076293945,-3.25 C32,-4 55,18.76799964904785 55,36.94300079345703 C55,41.750999450683594 55,55.25 55,60.415000915527344 C55,81.04199981689453 36.018001556396484,103.43000030517578 3.4670000076293945,103.43000030517578 C-29,103.43000030517578 -39.56800079345703,83.99600219726562 -43.5,76.0739974975586 C-48.5,66 -48.5,51.880001068115234 -47,38.439998626708984z M116.25,11.9399995803833 C116.25,-15.928000450134277 125,-32.5 140.8979949951172,-39.75 C154.75399780273438,-46.069000244140625 159.75,-30.232999801635742 159.75,-12.057999610900879 C159.75,-7.25 159.75,-0.75 159.75,4.414999961853027 C159.75,25.04199981689453 153.75,55 137.7729949951172,61.93000030517578 C120.18399810791016,69.55899810791016 116.25,56 116.25,46.57400131225586 C116.25,37.14799880981445 116.25,11.9399995803833 116.25,11.9399995803833z"/></g></g><mask id="__lottie_element_27_1" mask-type="alpha"><use xmlns:ns1="http://www.w3.org/1999/xlink" ns1:href="#__lottie_element_27"/></mask></defs><g clip-path="url(#__lottie_element_2)"><g transform="matrix(1,0,0,1,540,540)" opacity="0.3" style="display: block;"><path fill="rgb(175,175,175)" fill-opacity="1" d=" M0.5640000104904175,27.06999969482422 C87.40899658203125,19.266000747680664 162.5959930419922,66.1709976196289 168.49600219726562,131.8350067138672 C174.39599609375,197.49899291992188 108.7770004272461,257.0559997558594 21.93199920654297,264.8599853515625 C-64.91300201416016,272.66400146484375 -140.0989990234375,225.75900268554688 -145.99899291992188,160.09500122070312 C-151.8990020751953,94.43099975585938 -86.28099822998047,34.874000549316406 0.5640000104904175,27.06999969482422z"/></g><g style="display: none;"><path/></g><g style="display: none;"><path/></g><g style="display: none;"><path/></g><g style="display: none;"><path stroke-linecap="round" stroke-linejoin="miter" fill-opacity="0" stroke-miterlimit="4"/></g><g transform="matrix(-0.4226182699203491,-0.9063078165054321,0.9063078165054321,-0.4226182699203491,535.1168823242188,353.7359924316406)" opacity="1" style="display: block;"><path fill="rgb(88,204,2)" fill-opacity="1" d=" M-232.05499267578125,-281.6440124511719 C-232.05499267578125,-281.6440124511719 -8.607999801635742,-154.88499450683594 -8.607999801635742,-154.88499450683594 C3.36899995803833,-148.09100341796875 5.2769999504089355,-131.63900756835938 -4.841000080108643,-122.39399719238281 C-53.45500183105469,-77.97699737548828 -126.44999694824219,-69.66799926757812 -185.48399353027344,-103.15799713134766 C-244.5189971923828,-136.64700317382812 -274.9110107421875,-203.60400390625 -261.8320007324219,-268.17999267578125 C-259.1099853515625,-281.6199951171875 -244.03199768066406,-288.43798828125 -232.05499267578125,-281.6440124511719z"/></g><g transform="matrix(-0.4383711516857147,0.8987940549850464,-0.8987940549850464,-0.4383711516857147,524.9512329101562,319.6669921875)" opacity="1" style="display: block;"><path fill="rgb(88,204,2)" fill-opacity="1" d=" M15.001999855041504,-155.03799438476562 C15.001999855041504,-155.03799438476562 187.16700744628906,-308.22900390625 187.16700744628906,-308.22900390625 C196.39500427246094,-316.4410095214844 210.9199981689453,-313.3110046386719 215.8509979248047,-302.04901123046875 C239.54299926757812,-247.93699645996094 225.52699279785156,-183.54100036621094 180.04100036621094,-143.06900024414062 C134.55499267578125,-102.59500122070312 68.91200256347656,-96.11100006103516 17.840999603271484,-125.86100006103516 C7.211999893188477,-132.05299377441406 5.77400016784668,-146.82699584960938 15.001999855041504,-155.03799438476562z"/></g><g style="display: none;"><path stroke-linecap="round" stroke-linejoin="round" fill-opacity="0"/></g><g transform="matrix(1,0,0,1,540,540)" opacity="1" style="display: block;"><path stroke-linecap="round" stroke-linejoin="round" fill-opacity="0" stroke="rgb(244,144,0)" stroke-opacity="1" stroke-width="50" d=" M106,157 C106,157 -7,120 -7,120 C-7,120 -33,195.5 -33,195.5"/></g><g transform="matrix(1,0,0,1,546,746)" opacity="1" style="display: block;"><g opacity="1" transform="matrix(1,0,0,1,0,0)"><path fill="rgb(88,204,2)" fill-opacity="1" d=" M-45.28799819946289,-366.8219909667969 C-60.236000061035156,-366.62701416015625 -73.87300109863281,-374.5639953613281 -107.01399993896484,-372.2770080566406 C-154.5,-369 -163.7989959716797,-326.25 -163.4290008544922,-297.864013671875 C-163.4290008544922,-297.864013671875 -162.16600036621094,-228.5800018310547 -157.58299255371094,-169.7899932861328 C-153,-111 -96.7239990234375,-6.414000034332275 9.387999534606934,-10.956999778747559 C115.5,-15.5 166.5,-96.5 161.81100463867188,-244.5290069580078 C157.51100158691406,-380.28900146484375 89.0739974975586,-402.38800048828125 49.51499938964844,-401.87298583984375 C9.956000328063965,-401.3580017089844 -30.34000015258789,-367.0169982910156 -45.28799819946289,-366.8219909667969z"/></g><g opacity="1" transform="matrix(1,0,0,1,0,0)"><path fill="rgb(137,226,25)" fill-opacity="1" d=" M16.06399917602539,-49.2239990234375 C21.51300048828125,-49.72700119018555 41.55500030517578,-52.01900100708008 49.48099899291992,-53.29199981689453 C54.08700180053711,-53.96699905395508 54.29899978637695,-51.29600143432617 53.94499969482422,-49.972999572753906 C53.49700164794922,-48.297000885009766 46.43299865722656,-38.23400115966797 28.9950008392334,-38.064998626708984 C11.555000305175781,-37.895999908447266 10.614999771118164,-48.72100067138672 16.06399917602539,-49.2239990234375z M81.96199798583984,-61.12799835205078 C82.04000091552734,-63.702999114990234 98.34300231933594,-71.5469970703125 112.58000183105469,-80.61000061035156 C114.70500183105469,-81.96299743652344 116.44300079345703,-80.52899932861328 115.37100219726562,-76.45999908447266 C111.54299926757812,-61.93199920654297 98.32599639892578,-57.516998291015625 93.89800262451172,-56.76900100708008 C89.80899810791016,-56.077999114990234 81.86799621582031,-58.01300048828125 81.96199798583984,-61.12799835205078z M52.382999420166016,-36.159000396728516 C48.63199996948242,-34.91600036621094 53.30099868774414,-29.466999053955078 59.98400115966797,-28.889999389648438 C78.4800033569336,-27.29199981689453 86.4469985961914,-41.40599822998047 87.05400085449219,-43.854000091552734 C87.41899871826172,-45.32899856567383 88.20500183105469,-48.93600082397461 85.78900146484375,-48.1150016784668 C79.41400146484375,-45.946998596191406 69.71199798583984,-41.89899826049805 52.382999420166016,-36.159000396728516z"/></g></g><g transform="matrix(0.9961947202682495,0.08715574443340302,-0.08715574443340302,0.9961947202682495,525.5205078125,787.3286743164062)" opacity="1" style="display: block;"><path fill="rgb(137,226,25)" fill-opacity="1" d=" M-32.512001037597656,-292.79998779296875 C-32.512001037597656,-296.42401123046875 -32.66299819946289,-310.1650085449219 -23.753999710083008,-310.1650085449219 C-14.996000289916992,-310.1650085449219 17.638999938964844,-263.47198486328125 69.58300018310547,-263.47198486328125 C109.2959976196289,-263.47198486328125 101.27300262451172,-350.9909973144531 117.17900085449219,-355.8940124511719 C126.66999816894531,-358.82000732421875 131.6750030517578,-340.3909912109375 133.78900146484375,-332.6400146484375 C135.6009979248047,-338.5790100097656 140.00999450683594,-350.6090087890625 143.1510009765625,-351.2130126953125 C158.61300659179688,-351.2130126953125 167.95700073242188,-283.80999755859375 167.9929962158203,-254.54600524902344 C168.0279998779297,-226.30499267578125 163.39100646972656,-180.2550048828125 134.35899353027344,-174.07400512695312 C118.40799713134766,-170.67799377441406 112.03199768066406,-178.89599609375 112.03199768066406,-178.89599609375 C112.03199768066406,-178.89599609375 71.7239990234375,-173.44200134277344 71.7239990234375,-173.44200134277344 C64.47599792480469,-153.81199645996094 40.428001403808594,-122.81999969482422 -5.289999961853027,-123.58599853515625 C-66.28500366210938,-124.60800170898438 -77.19300079345703,-170.66200256347656 -79.48799896240234,-202.8939971923828 C-81.60299682617188,-232.6009979248047 -69.63600158691406,-250.71400451660156 -58.75899887084961,-257.614013671875 C-58.75899887084961,-257.614013671875 -58.75899887084961,-272.260986328125 -58.75899887084961,-272.260986328125 C-58.75899887084961,-281.77398681640625 -55.4370002746582,-293.25 -50.000999450683594,-293.25 C-45.652000427246094,-293.25 -36.2869987487793,-283.69000244140625 -31.606000900268555,-278.4549865722656 C-31.908000946044922,-282.02899169921875 -32.512001037597656,-289.9010009765625 -32.512001037597656,-292.79998779296875z"/></g><g style="display: none;"><g><path/></g><g><path stroke-linecap="round" stroke-linejoin="miter" fill-opacity="0" stroke-miterlimit="4"/></g></g><g transform="matrix(1,0,0,1,539.999755859375,539.99951171875)" opacity="1" style="display: block;"><path fill="rgb(255,255,255)" fill-opacity="1" d=" M-47,38.439998626708984 C-45.5,25 -41.06700134277344,-2.0220000743865967 4.295000076293945,-3.25 C32,-4 55,18.76799964904785 55,36.94300079345703 C55,41.750999450683594 55,55.25 55,60.415000915527344 C55,81.04199981689453 36.018001556396484,103.43000030517578 3.4670000076293945,103.43000030517578 C-29,103.43000030517578 -39.56800079345703,83.99600219726562 -43.5,76.0739974975586 C-48.5,66 -48.5,51.880001068115234 -47,38.439998626708984z M116.25,11.9399995803833 C116.25,-15.928000450134277 125,-32.5 140.8979949951172,-39.75 C154.75399780273438,-46.069000244140625 159.75,-30.232999801635742 159.75,-12.057999610900879 C159.75,-7.25 159.75,-0.75 159.75,4.414999961853027 C159.75,25.04199981689453 153.75,55 137.7729949951172,61.93000030517578 C120.18399810791016,69.55899810791016 116.25,56 116.25,46.57400131225586 C116.25,37.14799880981445 116.25,11.9399995803833 116.25,11.9399995803833z"/></g><g mask="url(#__lottie_element_27_1)" style="display: block;"><g transform="matrix(1,0,0,1,539.999755859375,539.999755859375)" opacity="1"><g opacity="1" transform="matrix(1,0,0,1,0,0)"><path fill="rgb(75,75,75)" fill-opacity="1" d=" M-0.47600001096725464,40.41600036621094 C-0.47600001096725464,16.511999130249023 6.75,6.75 23.642000198364258,8.621000289916992 C47.71900177001953,11.288000106811523 45.185001373291016,35.32500076293945 45.185001373291016,44.80099868774414 C45.185001373291016,67.06600189208984 36.28499984741211,75.48400115966797 22.583999633789062,74.80599975585938 C1.25,73.75 -0.47600001096725464,57.5 -0.47600001096725464,40.41600036621094z M121.90499877929688,13.916000366210938 C121.90499877929688,-9.98799991607666 126.86399841308594,-19.128999710083008 134.93899536132812,-19.128999710083008 C146.0019989013672,-19.128999710083008 144.41200256347656,-2.424999952316284 144.41200256347656,7.051000118255615 C144.41200256347656,29.31599998474121 136.89100646972656,36.305999755859375 130.97799682617188,36.305999755859375 C125.06500244140625,36.305999755859375 121.90499877929688,30.003000259399414 121.90499877929688,13.916000366210938z"/></g><g opacity="1" transform="matrix(1,0,0,1,0,0)"><path fill="rgb(255,255,255)" fill-opacity="1" d=" M-5.6579999923706055,38.75 C10.25,39.25 17,33.5 18.83799934387207,21.058000564575195 C19.615999221801758,15.791999816894531 18.25,5 11.036999702453613,4.396999835968018 C-1.0959999561309814,3.25 -19.31800079345703,38.32099914550781 -5.6579999923706055,38.75z M121.302001953125,3.815000057220459 C125.21299743652344,3.815000057220459 128.38400268554688,-1.725000023841858 128.38400268554688,-8.5600004196167 C128.38400268554688,-12.472999572753906 127.34400177001953,-15.961999893188477 125.72200012207031,-18.229999542236328 C122.25,-19 117.39099884033203,3.815000057220459 121.302001953125,3.815000057220459z"/></g></g></g><g transform="matrix(1,0,0,1,538.1358032226562,519.030517578125)" opacity="1" style="display: block;"><path fill="rgb(137,226,25)" fill-opacity="1" d=" M136.5,-27 C119.74600219726562,-18.902000427246094 112.5,22 88,29 C63.5,36 60.99800109863281,11.553999900817871 6.5,9.5 C-34.13600158691406,7.968999862670898 -44.13600158691406,12.468999862670898 -53.86399841308594,21 C-30.13599967956543,-0.03099999949336052 11.36400032043457,5.468999862670898 87.5,30 C132.36399841308594,-26.0310001373291 141.86399841308594,-32.03099822998047 166.13600158691406,-30 C164.5,-62.03099822998047 166.5,-41.5 136.5,-27z M167,64.5 C167,64.5 157.36399841308594,96.96900177001953 93,95 C4.363999843597412,153.968994140625 -50,121.5 -50,121.5 C-50,121.5 -27.63599967956543,132.5 4,132.5 C35.63600158691406,132.5 73.5,85 91,80.5 C108.5,76 122.13600158691406,97.03099822998047 140,90 C157.86399841308594,82.96900177001953 167,64.5 167,64.5z"/></g><g transform="matrix(0.9961947202682495,0.08715574443340302,-0.08715574443340302,0.9961947202682495,525.5205078125,787.3286743164062)" opacity="1" style="display: block;"><g opacity="1" transform="matrix(1,0,0,1,0,0)"><path fill="rgb(244,144,0)" fill-opacity="1" d=" M89.4010009765625,-188.38299560546875 C100.74299621582031,-188.38299560546875 109.93699645996094,-179.18899536132812 109.93699645996094,-167.8470001220703 C109.93699645996094,-156.5050048828125 100.74299621582031,-147.31100463867188 89.4010009765625,-147.31100463867188 C78.05899810791016,-147.31100463867188 68.86499786376953,-156.5050048828125 68.86499786376953,-167.8470001220703 C68.86499786376953,-179.18899536132812 78.05899810791016,-188.38299560546875 89.4010009765625,-188.38299560546875z"/></g><g opacity="1" transform="matrix(1,0,0,1,0,0)"><path fill="rgb(176,104,0)" fill-opacity="1" d=" M89.4010009765625,-190.37399291992188 C96.35199737548828,-190.37399291992188 101.98799896240234,-184.73800659179688 101.98799896240234,-177.78700256347656 C101.98799896240234,-170.83599853515625 96.35199737548828,-165.2010040283203 89.4010009765625,-165.2010040283203 C82.44999694824219,-165.2010040283203 76.81500244140625,-170.83599853515625 76.81500244140625,-177.78700256347656 C76.81500244140625,-184.73800659179688 82.44999694824219,-190.37399291992188 89.4010009765625,-190.37399291992188z"/></g><g opacity="1" transform="matrix(1,0,0,1,0,0)"><path fill="rgb(255,184,209)" fill-opacity="1" d=" M82.03099822998047,-182.8280029296875 C88.98200225830078,-182.8939971923828 94.96499633789062,-177.1840057373047 94.61699676513672,-170.24099731445312 C94.48300170898438,-167.5760040283203 95.302001953125,-165.38900756835938 89.1520004272461,-165.1790008544922 C83.39900207519531,-164.98199462890625 76.55599975585938,-170.2740020751953 76.92900085449219,-177.92300415039062 C77.02300262451172,-179.84100341796875 75.96399688720703,-182.77000427246094 82.03099822998047,-182.8280029296875z"/></g><g opacity="1" transform="matrix(1,0,0,1,0,0)"><path fill="rgb(255,194,0)" fill-opacity="1" d=" M116.41999816894531,-179.81300354003906 C116.41999816894531,-189.7790069580078 104.66899871826172,-197.4530029296875 90.87200164794922,-195.49400329589844 C73.52999877929688,-193.03199768066406 66.28800201416016,-176.30499267578125 66.28800201416016,-169.35899353027344 C66.28800201416016,-164.14300537109375 94.9990005493164,-161.38699340820312 107.81700134277344,-160.62899780273438 C109.3219985961914,-160.5399932861328 112.35800170898438,-160.58399963378906 113.1989974975586,-161.83700561523438 C116.4010009765625,-166.60800170898438 116.41999816894531,-172.87600708007812 116.41999816894531,-179.81300354003906z"/></g><g opacity="1" transform="matrix(1,0,0,1,0,0)"><path stroke-linecap="round" stroke-linejoin="round" fill-opacity="0" stroke="rgb(255,222,0)" stroke-opacity="1" stroke-width="10" d=" M89.61499786376953,-188.2790069580078 C91.72899627685547,-188.99000549316406 97.39399719238281,-189.1490020751953 101.47599792480469,-187.28399658203125"/></g></g><g style="display: none;"><g><path/></g><g><path stroke-linecap="round" stroke-linejoin="miter" fill-opacity="0" stroke-miterlimit="4"/></g></g><g style="display: none;"><path stroke-linecap="round" stroke-linejoin="round" fill-opacity="0"/></g><g style="display: none;"><path stroke-linecap="round" stroke-linejoin="miter" fill-opacity="0" stroke-miterlimit="10"/></g><g style="display: none;"><path stroke-linecap="round" stroke-linejoin="miter" fill-opacity="0" stroke-miterlimit="10"/></g></g></svg>