<svg width="80" height="90" viewBox="0 0 80 90" fill="none" xmlns="http://www.w3.org/2000/svg"><rect opacity="0.3" y="49" width="80" height="40" rx="4" fill="#AFAFAF"/><path d="M9.43689 49.1673C9.43689 43.6308 13.9251 39.1426 19.4616 39.1426H61.9037C67.4402 39.1426 71.9284 43.6308 71.9284 49.1673V75.7509C71.9284 77.9655 70.1332 79.7608 67.9186 79.7608H13.4468C11.2322 79.7608 9.43689 77.9655 9.43689 75.7509V49.1673Z" fill="#CE7D03"/><path d="M7.26642 34.6581C7.26642 29.1216 11.7546 24.6334 17.2911 24.6334H63.3456C68.8821 24.6334 73.3703 29.1216 73.3703 34.6581V64.4816H7.26642V34.6581Z" fill="#CE7D03"/><path d="M7.26642 61.9743C7.26642 60.867 8.16406 59.9693 9.27136 59.9693H19.7973C20.9046 59.9693 21.8023 60.867 21.8023 61.9743V79.821C21.8023 80.9283 20.9046 81.826 19.7973 81.826H9.27136C8.16406 81.826 7.26642 80.9283 7.26642 79.821V61.9743Z" fill="#EEAB00"/><path d="M58.5792 61.9743C58.5792 60.867 59.4769 59.9693 60.5842 59.9693H71.1101C72.2174 59.9693 73.1151 60.867 73.1151 61.9743V79.821C73.1151 80.9283 72.2174 81.826 71.1101 81.826H60.5842C59.4769 81.826 58.5792 80.9283 58.5792 79.821V61.9743Z" fill="#EEAB00"/><rect x="21.8011" y="73.2487" width="36.7782" height="2.63149" fill="#B46C00"/><rect x="7.26642" y="24.6334" width="66.1039" height="41.8457" fill="#724500"/><rect x="7.26642" y="3.0307" width="65.8487" height="25.6729" fill="#CE7D03"/><rect x="7.26642" y="60.9063" width="66.1039" height="5.57271" fill="#FEC700"/><rect x="73.3703" y="23.3889" width="42.3453" height="5.57271" transform="rotate(90 73.3703 23.3889)" fill="#FEC700"/><rect x="12.8409" y="23.3889" width="42.3453" height="5.57271" transform="rotate(90 12.8409 23.3889)" fill="#FEC700"/><rect x="7.26642" y="32.6273" width="5.57271" height="8.53299" fill="#EEAB00"/><rect x="67.7993" y="32.6273" width="5.57271" height="8.53299" fill="#EEAB00"/><path fill-rule="evenodd" clip-rule="evenodd" d="M7.26641 2.00494C7.26641 0.897644 8.16405 0 9.27135 0H19.7973C20.9046 0 21.8022 0.897644 21.8022 2.00494V18.0889L59.271 18.0889V2.00494C59.271 0.897644 60.1686 0 61.2759 0H71.8019C72.9092 0 73.8068 0.897644 73.8068 2.00494V18.0889H74.6741C75.7814 18.0889 76.6791 18.9865 76.6791 20.0938V30.6198C76.6791 31.7271 75.7814 32.6247 74.6741 32.6247L5.54334 32.6247C4.43604 32.6247 3.53839 31.7271 3.53839 30.6198L3.53839 20.0938C3.53839 18.9865 4.43604 18.0889 5.54333 18.0889H7.26641V2.00494Z" fill="#FEC700"/><path fill-rule="evenodd" clip-rule="evenodd" d="M76.4615 19.1845L30.164 32.6247H5.54334C4.43604 32.6247 3.53839 31.7271 3.53839 30.6198V20.0938C3.53839 18.9865 4.43604 18.0889 5.54333 18.0889H7.26641V15.0871L21.8022 10.8673V18.0889L59.271 18.0889V2.00494C59.271 0.897644 60.1686 0 61.2759 0H71.8019C72.9092 0 73.8068 0.897644 73.8068 2.00494V18.0889H74.6741C75.4541 18.0889 76.13 18.5342 76.4615 19.1845Z" fill="#FEF400"/><rect opacity="0.3" x="12.8409" y="45.936" width="54.9585" height="14.974" fill="#CE7D03"/><rect x="30.7248" y="15.3657" width="20.9266" height="19.5457" rx="3.00742" fill="#FEC700"/><path fill-rule="evenodd" clip-rule="evenodd" d="M51.6514 22.6388L30.7248 28.7138V18.3731C30.7248 16.7121 32.0713 15.3657 33.7322 15.3657H48.644C50.3049 15.3657 51.6514 16.7121 51.6514 18.3731V22.6388Z" fill="#FEF400"/><path fill-rule="evenodd" clip-rule="evenodd" d="M42.7647 26.1885C44.1615 25.6425 45.1381 24.392 45.1381 22.9367C45.1381 20.979 43.3709 19.392 41.1909 19.392C39.0109 19.392 37.2437 20.979 37.2437 22.9367C37.2437 24.392 38.2203 25.6425 39.6171 26.1885L38.498 28.4266C38.1647 29.0932 38.6493 29.8774 39.3946 29.8774H42.9872C43.7324 29.8774 44.2171 29.0932 43.8838 28.4266L42.7647 26.1885Z" fill="#BF7402"/><rect x="59.2802" y="16.1855" width="14.4799" height="1.87404" fill="#FEC700"/><rect x="7.26642" y="16.1855" width="14.4799" height="1.87404" fill="#FEC700"/></svg>