<svg xmlns="http://www.w3.org/2000/svg" xmlns:xlink="http://www.w3.org/1999/xlink" viewBox="0 0 1080 1080" width="1080" height="1080" preserveAspectRatio="xMidYMid meet" style="width: 100%; height: 100%; transform: translate3d(0px, 0px, 0px); content-visibility: visible;"><defs><clipPath id="__lottie_element_566"><rect width="1080" height="1080" x="0" y="0"/></clipPath><g id="__lottie_element_567"><g transform="matrix(0.9925461411476135,0.12186934053897858,-0.12186934053897858,0.9925461411476135,566.1124877929688,527.8607177734375)" opacity="1" style="display: block;"><g opacity="1" transform="matrix(1,0,0,1,0,0)"><path fill="rgb(0,189,255)" fill-opacity="1" d=" M69.5,100.5 C69.5,100.5 61,181 61,181 C61,181 -24.98699951171875,215.58700561523438 -32.94200134277344,165.54100036621094 C-40.89699935913086,115.49500274658203 69.5,100.5 69.5,100.5z"/><path stroke-linecap="butt" stroke-linejoin="miter" fill-opacity="0" stroke-miterlimit="4" stroke="rgb(0,166,224)" stroke-opacity="1" stroke-width="0" d=" M69.5,100.5 C69.5,100.5 61,181 61,181 C61,181 -24.98699951171875,215.58700561523438 -32.94200134277344,165.54100036621094 C-40.89699935913086,115.49500274658203 69.5,100.5 69.5,100.5z"/></g></g></g><g id="__lottie_element_582"><g transform="matrix(0.9925461411476135,0.12186934053897858,-0.12186934053897858,0.9925461411476135,230.499755859375,496.49200439453125)" opacity="1" style="display: block;"><path fill="rgb(214,91,91)" fill-opacity="1" d=" M399.8450012207031,68.53099822998047 C388.6940002441406,64.07099914550781 388.9779968261719,55.29800033569336 393.85400390625,50.77000045776367 C398.7300109863281,46.242000579833984 411.3900146484375,48.80099868774414 429.0679931640625,60.10900115966797 C446.7460021972656,71.41699981689453 461.9830017089844,90.08699798583984 454.9100036621094,98.01300048828125 C451.2699890136719,102.09200286865234 445.65301513671875,102.75199890136719 439.17401123046875,99.0479965209961 C435.0329895019531,96.68099975585938 431.92401123046875,93.26100158691406 427.6940002441406,87.4749984741211 C423.4639892578125,81.68900299072266 410.9960021972656,72.99099731445312 399.8450012207031,68.53099822998047z"/></g></g><g id="__lottie_element_603"><g transform="matrix(-0.6432955265045166,0.7656179666519165,-0.7656179666519165,-0.6432955265045166,740.6008911132812,751.4074096679688)" opacity="1" style="display: block;"><path fill="rgb(0,189,255)" fill-opacity="1" d=" M227.88800048828125,202.79100036621094 C215.97500610351562,242.00999450683594 128.73599243164062,216.09800720214844 128.73599243164062,216.09800720214844 C128.73599243164062,216.09800720214844 162.22799682617188,141.91400146484375 162.22799682617188,141.91400146484375 C162.22799682617188,141.91400146484375 239.80099487304688,163.57200622558594 227.88800048828125,202.79100036621094z"/><path stroke-linecap="butt" stroke-linejoin="miter" fill-opacity="0" stroke-miterlimit="4" stroke="rgb(0,166,224)" stroke-opacity="1" stroke-width="0" d=" M227.88800048828125,202.79100036621094 C215.97500610351562,242.00999450683594 128.73599243164062,216.09800720214844 128.73599243164062,216.09800720214844 C128.73599243164062,216.09800720214844 162.22799682617188,141.91400146484375 162.22799682617188,141.91400146484375 C162.22799682617188,141.91400146484375 239.80099487304688,163.57200622558594 227.88800048828125,202.79100036621094z"/></g></g><g id="__lottie_element_612"><g transform="matrix(0.9925461411476135,0.12186934053897858,-0.12186934053897858,0.9925461411476135,566.1124877929688,527.8607177734375)" opacity="1" style="display: block;"><g opacity="1" transform="matrix(1,0,0,1,0,0)"><path fill="rgb(0,189,255)" fill-opacity="1" d=" M164.23899841308594,156.781005859375 C193.43299865722656,112.86799621582031 182.62399291992188,61.23400115966797 146.72999572753906,35.25699996948242 C110.83599853515625,9.279999732971191 65.6050033569336,11.802000045776367 40.224998474121094,51.893001556396484 C24.770000457763672,76.30599975585938 -1.6330000162124634,103.33499908447266 -27.527000427246094,119.58399963378906 C-70.04900360107422,146.26699829101562 -73.83399963378906,191.8280029296875 -43.57699966430664,229.8699951171875 C-13.319999694824219,267.9119873046875 37.53300094604492,272.3869934082031 82.50800323486328,241.8000030517578 C109.8949966430664,223.1750030517578 146.46200561523438,183.52099609375 164.23899841308594,156.781005859375z"/></g></g></g><mask id="__lottie_element_612_1" mask-type="alpha"><use xmlns:ns1="http://www.w3.org/1999/xlink" ns1:href="#__lottie_element_612"/></mask><g id="__lottie_element_624"><g transform="matrix(1,0,0,1,540,540)" opacity="1" style="display: block;"><path fill="rgb(61,61,61)" fill-opacity="1" d=" M201.9239959716797,-159.45799255371094 C201.9239959716797,-241.3939971923828 135.50100708007812,-307.8169860839844 53.564998626708984,-307.8169860839844 C53.564998626708984,-307.8169860839844 -56.23899841308594,-307.8169860839844 -56.23899841308594,-307.8169860839844 C-138.17599487304688,-307.8169860839844 -204.5989990234375,-241.3939971923828 -204.5989990234375,-159.45799255371094 C-204.5989990234375,-77.52100372314453 -138.17599487304688,-11.097999572753906 -56.23899841308594,-11.097999572753906 C-56.23899841308594,-11.097999572753906 53.56399917602539,-11.097999572753906 53.56399917602539,-11.097999572753906 C135.50100708007812,-11.097999572753906 201.9239959716797,-77.52100372314453 201.9239959716797,-159.45799255371094z"/></g></g><mask id="__lottie_element_624_1" mask-type="alpha"><use xmlns:ns2="http://www.w3.org/1999/xlink" ns2:href="#__lottie_element_624"/></mask><g id="__lottie_element_636"><g transform="matrix(0.9986295104026794,-0.0523359552025795,0.0523359552025795,0.9986295104026794,535.5869750976562,524.219970703125)" opacity="1" style="display: block;"><g opacity="1" transform="matrix(1,0,0,1,0,0)"><path fill="rgb(249,94,134)" fill-opacity="1" d=" M-76,-23 C-76,-23 -76,-12 -69.5,-7 C-49,-7 -29,11 -24,16 C-19,21 -10.5,26.5 4,27 C18.5,27.5 71.5,26.5 75,22.5 C78.5,18.5 82,3.5 79.5,-13.5 C77,-12.5 50.60499954223633,-5.997000217437744 2.6050000190734863,-7.497000217437744 C-45.39500045776367,-8.996999740600586 -76,-23 -76,-23z"/></g></g></g><clipPath id="__lottie_element_640"><path d="M0,0 L1080,0 L1080,1080 L0,1080z"/></clipPath><g id="__lottie_element_643"><g transform="matrix(1,0,0,1,540,540)" opacity="1" style="display: block;"><path fill="rgb(255,255,255)" fill-opacity="1" d=" M-41.37799835205078,-66.44200134277344 C-64.25599670410156,-65.13400268554688 -71.5,-45.5 -70.96099853515625,-30.261999130249023 C-70.58899688720703,-19.746000289916992 -61.803001403808594,3.618000030517578 -8.935999870300293,3.618000030517578 C-8.935999870300293,3.618000030517578 -8.935999870300293,-23.367000579833984 -8.935999870300293,-23.367000579833984 C-8.935999870300293,-52.5 -18.5,-67.75 -41.37799835205078,-66.44200134277344z M32.82099914550781,-66.94200134277344 C8.892000198364258,-64.88400268554688 5.880000114440918,-40 5.880000114440918,-23.367000579833984 C5.880000114440918,-23.367000579833984 5.880000114440918,3.618000030517578 5.880000114440918,3.618000030517578 C58.74700164794922,3.618000030517578 66.86699676513672,-19.488000869750977 67.90499877929688,-30.261999130249023 C70,-52 56.75,-69 32.82099914550781,-66.94200134277344z"/></g></g><mask id="__lottie_element_643_1" mask-type="alpha"><use xmlns:ns3="http://www.w3.org/1999/xlink" ns3:href="#__lottie_element_643"/></mask><mask id="__lottie_element_636_1" mask-type="alpha"><use xmlns:ns4="http://www.w3.org/1999/xlink" ns4:href="#__lottie_element_636"/></mask><mask id="__lottie_element_603_1" mask-type="alpha"><use xmlns:ns5="http://www.w3.org/1999/xlink" ns5:href="#__lottie_element_603"/></mask><mask id="__lottie_element_582_1" mask-type="alpha"><use xmlns:ns6="http://www.w3.org/1999/xlink" ns6:href="#__lottie_element_582"/></mask><mask id="__lottie_element_567_1" mask-type="alpha"><use xmlns:ns7="http://www.w3.org/1999/xlink" ns7:href="#__lottie_element_567"/></mask></defs><g clip-path="url(#__lottie_element_566)"><g transform="matrix(1,0,0,1,540,540)" opacity="0.3" style="display: block;"><path fill="rgb(175,175,175)" fill-opacity="1" d=" M-1.3350000381469727,7.869999885559082 C110.9229965209961,7.869999885559082 201.92599487304688,87.75199890136719 201.92599487304688,186.29100036621094 C201.92599487304688,284.8299865722656 110.9229965209961,364.7120056152344 -1.3350000381469727,364.7120056152344 C-113.59300231933594,364.7120056152344 -204.5959930419922,284.8299865722656 -204.5959930419922,186.29100036621094 C-204.5959930419922,87.75199890136719 -113.59300231933594,7.869999885559082 -1.3350000381469727,7.869999885559082z"/></g><g transform="matrix(1,0,0,1,540,540)" opacity="1" style="display: block;"><path stroke-linecap="round" stroke-linejoin="round" fill-opacity="0" stroke="rgb(255,149,0)" stroke-opacity="1" stroke-width="48" d=" M-26,252.5 C-26,252.5 -54.25,285.75 -54.25,285.75 M24.75,252.5 C24.75,252.5 52.5,285.75 52.5,285.75"/></g><g transform="matrix(1,0,0,1,540,540)" opacity="1" style="display: block;"><path fill="rgb(255,177,0)" fill-opacity="1" d=" M200.31900024414062,104.81900024414062 C200.31900024414062,212.08099365234375 109.31600189208984,299.03399658203125 -2.941999912261963,299.03399658203125 C-115.19999694824219,299.03399658203125 -206.2030029296875,212.08099365234375 -206.2030029296875,104.81900024414062 C-206.2030029296875,-39 200.31900024414062,-46 200.31900024414062,104.81900024414062z M30.29800033569336,36.29999923706055 C30.29800033569336,36.29999923706055 30.29800033569336,36.29999923706055 30.29800033569336,36.29999923706055 C50.643001556396484,36.29999923706055 67.13700103759766,52.792999267578125 67.13700103759766,73.13800048828125 C67.13700103759766,73.13800048828125 67.13700103759766,112.76499938964844 67.13700103759766,112.76499938964844 C67.13700103759766,133.11000061035156 50.643001556396484,149.60299682617188 30.29800033569336,149.60299682617188 C30.29800033569336,149.60299682617188 30.29800033569336,149.60299682617188 30.29800033569336,149.60299682617188 C16.798999786376953,149.60299682617188 4.994999885559082,142.3419952392578 -1.4199999570846558,131.51199340820312 C-6.5,139 -17.75,149.76499938964844 -33.540000915527344,149.76499938964844 C-49.33000183105469,149.76499938964844 -69.54000091552734,138 -69.54000091552734,113.44400024414062 C-69.54000091552734,88.51399993896484 -73.79000091552734,43.63800048828125 -73.79000091552734,43.63800048828125 C-73.79000091552734,23.292999267578125 9.95300006866455,36.29999923706055 30.29800033569336,36.29999923706055z M-205.99600219726562,96.01300048828125 C-202.91299438476562,29.993000030517578 -165.3350067138672,-27.452999114990234 -110.06600189208984,-60.266998291015625 C-110.06600189208984,-60.266998291015625 -51.369998931884766,33.84199905395508 -51.369998931884766,33.84199905395508 C-59.7239990234375,54.30099868774414 -76.79499816894531,125.06600189208984 -79.15599822998047,251.26499938964844 C-79.30000305175781,258.9599914550781 -87.0469970703125,264.22601318359375 -93.98699951171875,260.89801025390625 C-157.94700622558594,230.22900390625 -202.6230010986328,168.25399780273438 -205.99600219726562,96.01300048828125z M106.36599731445312,-58.95000076293945 C160.4459991455078,-25.927000045776367 197.08099365234375,30.881000518798828 200.11500549316406,96.03900146484375 C196.78900146484375,167.09100341796875 153.50799560546875,228.20899963378906 91.2229995727539,259.375 C84.27799987792969,262.8500061035156 76.4000015258789,257.5899963378906 76.24700164794922,249.8260040283203 C73.78399658203125,124.52999877929688 56.81100082397461,54.22600173950195 48.487998962402344,33.845001220703125 C48.487998962402344,33.845001220703125 106.36599731445312,-58.95000076293945 106.36599731445312,-58.95000076293945z"/><g opacity="1" transform="matrix(1,0,0,1,0,0)"><path fill="rgb(255,255,255)" fill-opacity="1" d=" M30.29800033569336,36.29999923706055 C30.29800033569336,36.29999923706055 30.29800033569336,36.29999923706055 30.29800033569336,36.29999923706055 C50.643001556396484,36.29999923706055 67.13700103759766,52.792999267578125 67.13700103759766,73.13800048828125 C67.13700103759766,73.13800048828125 67.13700103759766,112.76499938964844 67.13700103759766,112.76499938964844 C67.13700103759766,133.11000061035156 50.643001556396484,149.60299682617188 30.29800033569336,149.60299682617188 C30.29800033569336,149.60299682617188 30.29800033569336,149.60299682617188 30.29800033569336,149.60299682617188 C16.798999786376953,149.60299682617188 4.994999885559082,142.3419952392578 -1.4199999570846558,131.51199340820312 C-6.5,139 -17.75,149.76499938964844 -33.540000915527344,149.76499938964844 C-49.33000183105469,149.76499938964844 -69.54000091552734,138 -69.54000091552734,113.44400024414062 C-69.54000091552734,88.51399993896484 -73.79000091552734,43.63800048828125 -73.79000091552734,43.63800048828125 C-73.79000091552734,23.292999267578125 9.95300006866455,36.29999923706055 30.29800033569336,36.29999923706055z"/></g><g opacity="1" transform="matrix(1,0,0,1,0,0)"><path fill="rgb(255,149,0)" fill-opacity="1" d=" M-205.99600219726562,96.01300048828125 C-202.91299438476562,29.993000030517578 -165.3350067138672,-27.452999114990234 -110.06600189208984,-60.266998291015625 C-110.06600189208984,-60.266998291015625 -51.369998931884766,33.84199905395508 -51.369998931884766,33.84199905395508 C-59.7239990234375,54.30099868774414 -76.79499816894531,125.06600189208984 -79.15599822998047,251.26499938964844 C-79.30000305175781,258.9599914550781 -87.0469970703125,264.22601318359375 -93.98699951171875,260.89801025390625 C-157.94700622558594,230.22900390625 -202.6230010986328,168.25399780273438 -205.99600219726562,96.01300048828125z M106.36599731445312,-58.95000076293945 C160.4459991455078,-25.927000045776367 197.08099365234375,30.881000518798828 200.11500549316406,96.03900146484375 C196.78900146484375,167.09100341796875 153.50799560546875,228.20899963378906 91.2229995727539,259.375 C84.27799987792969,262.8500061035156 76.4000015258789,257.5899963378906 76.24700164794922,249.8260040283203 C73.78399658203125,124.52999877929688 56.81100082397461,54.22600173950195 48.487998962402344,33.845001220703125 C48.487998962402344,33.845001220703125 106.36599731445312,-58.95000076293945 106.36599731445312,-58.95000076293945z"/></g></g><g transform="matrix(1,0,0,1,540,540)" opacity="1" style="display: block;"><path fill="rgb(255,177,0)" fill-opacity="1" d=" M-223.1060028076172,93.43299865722656 C-223.1060028076172,12.581999778747559 -145.59300231933594,-52.43899917602539 -119.91999816894531,-52.43899917602539 C-104.02999877929688,-52.43899917602539 -162.98800659179688,17.799999237060547 -162.98800659179688,77.34100341796875 C-162.98800659179688,77.34100341796875 -162.98800659179688,145.02000427246094 -162.98800659179688,145.02000427246094 C-178.98300170898438,147.93699645996094 -223.1060028076172,141.70199584960938 -223.1060028076172,93.43299865722656z"/></g><g transform="matrix(1,0,0,1,540,540)" opacity="1" style="display: block;"><path stroke-linecap="round" stroke-linejoin="miter" fill-opacity="0" stroke-miterlimit="10" stroke="rgb(255,177,0)" stroke-opacity="1" stroke-width="70" d=" M124.59500122070312,-7.418000221252441 C165.7169952392578,24.447999954223633 214.6750030517578,128.46099853515625 140.8070068359375,209.62600708007812"/></g><g transform="matrix(1,0,0,1,540,540)" opacity="1" style="display: block;"><path fill="rgb(159,159,159)" fill-opacity="1" d=" M201.9239959716797,-159.45799255371094 C201.9239959716797,-241.3939971923828 135.50100708007812,-307.8169860839844 53.564998626708984,-307.8169860839844 C53.564998626708984,-307.8169860839844 -56.23899841308594,-307.8169860839844 -56.23899841308594,-307.8169860839844 C-138.17599487304688,-307.8169860839844 -204.5989990234375,-241.3939971923828 -204.5989990234375,-159.45799255371094 C-204.5989990234375,-77.52100372314453 -138.17599487304688,-11.097999572753906 -56.23899841308594,-11.097999572753906 C-56.23899841308594,-11.097999572753906 53.56399917602539,-11.097999572753906 53.56399917602539,-11.097999572753906 C135.50100708007812,-11.097999572753906 201.9239959716797,-77.52100372314453 201.9239959716797,-159.45799255371094z M-3.7639999389648438,-176.05599975585938 C59.5989990234375,-176.05599975585938 144.93800354003906,-163.5 144.93800354003906,-65.00700378417969 C144.93800354003906,-45.71200180053711 144.91000366210938,-27.700000762939453 144.91000366210938,-13.317999839782715 C144.91000366210938,50.87900161743164 78.71499633789062,102.91999816894531 -2.940999984741211,102.91999816894531 C-84.59700012207031,102.91999816894531 -150.79200744628906,50.87900161743164 -150.79200744628906,-13.317999839782715 C-150.79200744628906,-23.621999740600586 -150.8719940185547,-52.290000915527344 -150.8719940185547,-65.45800018310547 C-150.8719940185547,-155.75 -72.31300354003906,-176.05599975585938 -3.7639999389648438,-176.05599975585938z"/><g opacity="1" transform="matrix(1,0,0,1,0,0)"><path fill="rgb(255,203,163)" fill-opacity="1" d=" M-3.7639999389648438,-176.05599975585938 C59.5989990234375,-176.05599975585938 144.93800354003906,-163.5 144.93800354003906,-65.00700378417969 C144.93800354003906,-45.71200180053711 144.91000366210938,-27.700000762939453 144.91000366210938,-13.317999839782715 C144.91000366210938,50.87900161743164 78.71499633789062,102.91999816894531 -2.940999984741211,102.91999816894531 C-84.59700012207031,102.91999816894531 -150.79200744628906,50.87900161743164 -150.79200744628906,-13.317999839782715 C-150.79200744628906,-23.621999740600586 -150.8719940185547,-52.290000915527344 -150.8719940185547,-65.45800018310547 C-150.8719940185547,-155.75 -72.31300354003906,-176.05599975585938 -3.7639999389648438,-176.05599975585938z"/></g></g><g mask="url(#__lottie_element_636_1)" style="display: block;"><g clip-path="url(#__lottie_element_640)" transform="matrix(1,0,0,1,0,0)" opacity="1"><g mask="url(#__lottie_element_643_1)" style="display: block;"><g transform="matrix(1,0,0,1,540,540)" opacity="1"><path fill="rgb(255,255,255)" fill-opacity="1" d=" M168.78500366210938,-153.44549560546875 C168.78500366210938,-153.44549560546875 168.78500366210938,153.44549560546875 168.78500366210938,153.44549560546875 C168.78500366210938,153.44549560546875 -168.78500366210938,153.44549560546875 -168.78500366210938,153.44549560546875 C-168.78500366210938,153.44549560546875 -168.78500366210938,-153.44549560546875 -168.78500366210938,-153.44549560546875 C-168.78500366210938,-153.44549560546875 168.78500366210938,-153.44549560546875 168.78500366210938,-153.44549560546875z M-37.48699951171875,2.9670000076293945 C-38.28900146484375,-7.745999813079834 -32.301998138427734,-17.604000091552734 -21.400999069213867,-17.802000045776367 C-10.5,-18 -5.755000114440918,-7.948999881744385 -5.815999984741211,2.9670000076293945 C-5.876999855041504,13.883000373840332 -12.656000137329102,23.524999618530273 -21.400999069213867,23.524999618530273 C-30.14699935913086,23.524999618530273 -36.685001373291016,13.680000305175781 -37.48699951171875,2.9670000076293945z M21.702999114990234,1.975000023841858 C21.197999954223633,-7.98799991607666 27.635000228881836,-17.62299919128418 36.35900115966797,-18.235000610351562 C45.08300018310547,-18.847000122070312 52.9630012512207,-11.83899974822998 53.17599868774414,-1.2000000476837158 C53.388999938964844,9.439000129699707 47.880001068115234,21.042999267578125 39.15599822998047,21.655000686645508 C30.43199920654297,22.267000198364258 22.20800018310547,11.937000274658203 21.702999114990234,1.975000023841858z"/><path fill="rgb(61,61,61)" fill-opacity="1" d=" M-37.48699951171875,2.9670000076293945 C-38.28900146484375,-7.745999813079834 -32.301998138427734,-17.604000091552734 -21.400999069213867,-17.802000045776367 C-10.5,-18 -5.755000114440918,-7.948999881744385 -5.815999984741211,2.9670000076293945 C-5.876999855041504,13.883000373840332 -12.656000137329102,23.524999618530273 -21.400999069213867,23.524999618530273 C-30.14699935913086,23.524999618530273 -36.685001373291016,13.680000305175781 -37.48699951171875,2.9670000076293945z M21.702999114990234,1.975000023841858 C21.197999954223633,-7.98799991607666 27.635000228881836,-17.62299919128418 36.35900115966797,-18.235000610351562 C45.08300018310547,-18.847000122070312 52.9630012512207,-11.83899974822998 53.17599868774414,-1.2000000476837158 C53.388999938964844,9.439000129699707 47.880001068115234,21.042999267578125 39.15599822998047,21.655000686645508 C30.43199920654297,22.267000198364258 22.20800018310547,11.937000274658203 21.702999114990234,1.975000023841858z"/></g></g></g></g><g transform="matrix(1,0,0,1,540,540)" opacity="1" style="display: block;"><g opacity="1" transform="matrix(1,0,0,1,0,0)"><path stroke-linecap="round" stroke-linejoin="round" fill-opacity="0" stroke="rgb(247,178,134)" stroke-opacity="1" stroke-width="6.602" d=" M104.14700317382812,-50.880001068115234 C104.14700317382812,-50.880001068115234 83.23999786376953,-33.82400131225586 83.23999786376953,-33.82400131225586 C83.23999786376953,-33.82400131225586 104.14700317382812,-31.62299919128418 104.14700317382812,-31.62299919128418 M-107.12100219726562,-50.880001068115234 C-90.31900024414062,-44.39099884033203 -86.21399688720703,-33.82400131225586 -86.21399688720703,-33.82400131225586 C-86.21399688720703,-33.82400131225586 -97.70099639892578,-38.04999923706055 -107.12100219726562,-31.62299919128418"/></g><g opacity="1" transform="matrix(1,0,0,1,0,0)"><path fill="rgb(232,150,101)" fill-opacity="1" d=" M13.335000038146973,7.3520002365112305 C13.428999900817871,15.112000465393066 7.214000225067139,21.47800064086914 -0.5450000166893005,21.57200050354004 C-8.305000305175781,21.666000366210938 -14.67199993133545,15.451000213623047 -14.765999794006348,7.690999984741211 C-14.859999656677246,-0.0689999982714653 -4.927000045776367,-17.80299949645996 -1.0219999551773071,-17.850000381469727 C2.882999897003174,-17.89699935913086 13.241999626159668,-0.40799999237060547 13.335000038146973,7.3520002365112305z"/></g><g opacity="1" transform="matrix(1,0,0,1,0,0)"><path stroke-linecap="round" stroke-linejoin="round" fill-opacity="0" stroke="rgb(232,150,101)" stroke-opacity="1" stroke-width="7.703" d=" M-8.918000221252441,33.82500076293945 C-23.934999465942383,32.558998107910156 -40.96200180053711,25.413999557495117 -54.10900115966797,7.163000106811523"/></g><g opacity="1" transform="matrix(1,0,0,1,0,0)"><path stroke-linecap="round" stroke-linejoin="miter" fill-opacity="0" stroke-miterlimit="4" stroke="rgb(247,178,134)" stroke-opacity="1" stroke-width="5.502" d=" M-26.797000885009766,63.00699996948242 C-14.692999839782715,73.45999908447266 8.414999961853027,73.45999908447266 21.069000244140625,63.00699996948242"/></g><g opacity="1" transform="matrix(1,0,0,1,0,0)"><path stroke-linecap="round" stroke-linejoin="round" fill-opacity="0" stroke="rgb(61,61,61)" stroke-opacity="1" stroke-width="22.007" d=" M-44.25,-57.5 C-15.25,-62.25 -8.75,-73.75 -1.274999976158142,-86.45800018310547 C5.880000114440918,-73.71800231933594 12.175999641418457,-62.40999984741211 41.15299987792969,-57.553001403808594"/></g></g><g transform="matrix(1,0,0,1,540,540)" opacity="1" style="display: block;"><path fill="rgb(159,159,159)" fill-opacity="1" d=" M-150.66000366210938,-45.31999969482422 C-143.6179962158203,-56.98400115966797 -138.9429931640625,-74.72200012207031 -137.4759979248047,-82.79100036621094 C-137.4759979248047,-82.79100036621094 -153.9810028076172,-94.8949966430664 -153.9810028076172,-94.8949966430664 C-156.31900024414062,-87.10099792480469 -161.13400268554688,-71.3479995727539 -161.6840057373047,-70.68699645996094 C-162.3719940185547,-69.86199951171875 -158.36300659179688,-63.61399841308594 -150.66000366210938,-45.31999969482422z M145.0679931640625,-44.39099884033203 C138.0260009765625,-56.05400085449219 133.3509979248047,-73.79199981689453 131.88400268554688,-81.86199951171875 C131.88400268554688,-81.86199951171875 148.38900756835938,-93.96600341796875 148.38900756835938,-93.96600341796875 C150.72799682617188,-86.1709976196289 155.54200744628906,-70.41799926757812 156.0919952392578,-69.75800323486328 C156.77999877929688,-68.93199920654297 152.77099609375,-62.683998107910156 145.0679931640625,-44.39099884033203z M-122.2030029296875,-64.3550033569336 C-170.3000030517578,-86.56900024414062 -190.5,-136 -194.10800170898438,-155.20899963378906 C-197.71600341796875,-174.41799926757812 -199.5,-189 -195.5240020751953,-208.38800048828125 C-189.6699981689453,-236.93499755859375 -144.88900756835938,-305.39898681640625 -66.08300018310547,-307.5710144042969 C-48.69599914550781,-308.04998779296875 28.5,-307.5190124511719 58.77199935913086,-307.5190124511719 C134.5,-307.5190124511719 178.4029998779297,-245.6750030517578 188.92599487304688,-220.83700561523438 C195,-206.5 201.05999755859375,-179.00999450683594 194.53399658203125,-155.28700256347656 C175.75,-87 126.74700164794922,-66.36699676513672 122.47200012207031,-64.34200286865234 C107.5,-57.25 91.11399841308594,-67.73400115966797 86.55699920654297,-83.61699676513672 C82,-99.5 79.62699890136719,-108.65899658203125 79.62699890136719,-108.65899658203125 C79.62699890136719,-108.65899658203125 -0.4320000112056732,-108.59300231933594 -0.4320000112056732,-108.59300231933594 C-0.4320000112056732,-108.59300231933594 -78.58599853515625,-108.52799987792969 -78.58599853515625,-108.52799987792969 C-78.58599853515625,-108.52799987792969 -83.9209976196289,-91.2979965209961 -86.24299621582031,-83.37000274658203 C-90.91100311279297,-67.43399810791016 -107.12699890136719,-57.391998291015625 -122.2030029296875,-64.3550033569336z"/><g opacity="1" transform="matrix(1,0,0,1,0,0)"><path fill="rgb(61,61,61)" fill-opacity="1" d=" M-122.2030029296875,-64.3550033569336 C-170.3000030517578,-86.56900024414062 -190.5,-136 -194.10800170898438,-155.20899963378906 C-197.71600341796875,-174.41799926757812 -199.5,-189 -195.5240020751953,-208.38800048828125 C-189.6699981689453,-236.93499755859375 -144.88900756835938,-305.39898681640625 -66.08300018310547,-307.5710144042969 C-48.69599914550781,-308.04998779296875 28.5,-307.5190124511719 58.77199935913086,-307.5190124511719 C134.5,-307.5190124511719 178.4029998779297,-245.6750030517578 188.92599487304688,-220.83700561523438 C195,-206.5 201.05999755859375,-179.00999450683594 194.53399658203125,-155.28700256347656 C175.75,-87 126.74700164794922,-66.36699676513672 122.47200012207031,-64.34200286865234 C107.5,-57.25 91.11399841308594,-67.73400115966797 86.55699920654297,-83.61699676513672 C82,-99.5 79.62699890136719,-108.65899658203125 79.62699890136719,-108.65899658203125 C79.62699890136719,-108.65899658203125 -0.4320000112056732,-108.59300231933594 -0.4320000112056732,-108.59300231933594 C-0.4320000112056732,-108.59300231933594 -78.58599853515625,-108.52799987792969 -78.58599853515625,-108.52799987792969 C-78.58599853515625,-108.52799987792969 -83.9209976196289,-91.2979965209961 -86.24299621582031,-83.37000274658203 C-90.91100311279297,-67.43399810791016 -107.12699890136719,-57.391998291015625 -122.2030029296875,-64.3550033569336z"/></g></g><g mask="url(#__lottie_element_624_1)" style="display: block;"><g transform="matrix(1.2000000476837158,0,0,1.2000000476837158,540.5891723632812,600.5760498046875)" opacity="0.2"><path fill="rgb(0,0,0)" fill-opacity="1" d=" M-2.946000099182129,-364.7120056152344 C31.202999114990234,-364.7120056152344 58.88600158691406,-337.02899169921875 58.88600158691406,-302.8800048828125 C58.88600158691406,-268.7309875488281 31.202999114990234,-241.04800415039062 -2.946000099182129,-241.04800415039062 C-37.095001220703125,-241.04800415039062 -64.77799987792969,-268.7309875488281 -64.77799987792969,-302.8800048828125 C-64.77799987792969,-337.02899169921875 -37.095001220703125,-364.7120056152344 -2.946000099182129,-364.7120056152344z"/></g></g><g transform="matrix(1,0,0,1,540,540)" opacity="1" style="display: block;"><g opacity="1" transform="matrix(1,0,0,1,0,0)"><path stroke-linecap="round" stroke-linejoin="miter" fill-opacity="0" stroke-miterlimit="4" stroke="rgb(61,61,61)" stroke-opacity="1" stroke-width="122" d=" M-2.5,-304 C-2.5,-304 -4,-304 -4,-304"/></g></g><g transform="matrix(1,0,0,1,540,540)" opacity="1" style="display: block;"><path stroke-linecap="round" stroke-linejoin="miter" fill-opacity="0" stroke-miterlimit="4" stroke="rgb(255,203,163)" stroke-opacity="1" stroke-width="86" d=" M122.75,220.25 C122.75,220.25 122.75,220.25 122.75,220.25"/></g><g transform="matrix(0.9925461411476135,0.12186934053897858,-0.12186934053897858,0.9925461411476135,566.1124877929688,527.8607177734375)" opacity="1" style="display: block;"><g opacity="1" transform="matrix(1,0,0,1,-5,-5)"><path stroke-linecap="round" stroke-linejoin="round" fill-opacity="0" stroke="rgb(0,189,255)" stroke-opacity="1" stroke-width="34" d=" M38.66699981689453,251.95399475097656 C38.66699981689453,251.95399475097656 46.08000183105469,279.77099609375 27.51300048828125,306.08099365234375 C12.425000190734863,328.20599365234375 -11.70199966430664,343.34600830078125 -3.3550000190734863,360.7550048828125"/></g><g opacity="1" transform="matrix(1,0,0,1,0,0)"><g opacity="1" transform="matrix(1,0,0,1,0,0)"><path fill="rgb(0,189,255)" fill-opacity="1" d=" M142.031005859375,32.51900100708008 C142.031005859375,32.51900100708008 97.0260009765625,35.21200180053711 97.0260009765625,35.21200180053711 C97.0260009765625,35.21200180053711 107.59200286865234,10.491000175476074 107.59200286865234,10.491000175476074 C111.4010009765625,1.5789999961853027 123.7490005493164,0.8399999737739563 128.59300231933594,9.234999656677246 C128.59300231933594,9.234999656677246 142.031005859375,32.51900100708008 142.031005859375,32.51900100708008z"/></g><g opacity="1" transform="matrix(1,0,0,1,0,0)"><path fill="rgb(0,189,255)" fill-opacity="1" d=" M170.58700561523438,63.00699996948242 C170.58700561523438,63.00699996948242 133.20799255371094,36.7239990234375 133.20799255371094,36.7239990234375 C133.20799255371094,36.7239990234375 156.48199462890625,23.267000198364258 156.48199462890625,23.267000198364258 C164.8719940185547,18.413999557495117 175.1999969482422,25.224000930786133 174.04800415039062,34.847999572753906 C174.04800415039062,34.847999572753906 170.58700561523438,63.00699996948242 170.58700561523438,63.00699996948242z"/></g></g><g opacity="1" transform="matrix(1,0,0,1,0,0)"><path fill="rgb(0,189,255)" fill-opacity="1" d=" M164.23899841308594,156.781005859375 C193.43299865722656,112.86799621582031 182.62399291992188,61.23400115966797 146.72999572753906,35.25699996948242 C110.83599853515625,9.279999732971191 65.6050033569336,11.802000045776367 40.224998474121094,51.893001556396484 C24.770000457763672,76.30599975585938 -1.6330000162124634,103.33499908447266 -27.527000427246094,119.58399963378906 C-70.04900360107422,146.26699829101562 -73.83399963378906,191.8280029296875 -43.57699966430664,229.8699951171875 C-13.319999694824219,267.9119873046875 37.53300094604492,272.3869934082031 82.50800323486328,241.8000030517578 C109.8949966430664,223.1750030517578 146.46200561523438,183.52099609375 164.23899841308594,156.781005859375z"/></g><g opacity="1" transform="matrix(1,0,0,1,0,0)"><path stroke-linecap="round" stroke-linejoin="round" fill-opacity="0" stroke="rgb(0,114,154)" stroke-opacity="1" stroke-width="5" d=" M93.25299835205078,35.60100173950195 C85.34100341796875,44.56399917602539 99.5,55 107.03099822998047,45.22999954223633 C99.5,55.25 113.75,64.5 120.75,55.25"/></g><g opacity="1" transform="matrix(1,0,0,1,0,0)"><path fill="rgb(255,255,255)" fill-opacity="1" d=" M86.89399719238281,118.75399780273438 C86.89399719238281,118.75399780273438 59.547000885009766,99.71199798583984 59.547000885009766,99.71199798583984 C46.887001037597656,90.89600372314453 43.77000045776367,73.48600006103516 52.58599853515625,60.82600021362305 C61.402000427246094,48.16600036621094 78.81099700927734,45.04999923706055 91.47200012207031,53.8650016784668 C91.47200012207031,53.8650016784668 118.81800079345703,72.90799713134766 118.81800079345703,72.90799713134766 C131.47900390625,81.7249984741211 134.5959930419922,99.13300323486328 125.77899932861328,111.79399871826172 C116.96299743652344,124.4540023803711 99.55500030517578,127.57099914550781 86.89399719238281,118.75399780273438z"/></g><g opacity="1" transform="matrix(1,0,0,1,0,0)"><path fill="rgb(255,163,163)" fill-opacity="1" d=" M83.4280014038086,63.22700119018555 C82.79199981689453,58.97700119018555 87.5479965209961,56.02399826049805 91.07499694824219,58.47999954223633 C91.07499694824219,58.47999954223633 99.76200103759766,64.52999877929688 99.76200103759766,64.52999877929688 C103.29000091552734,66.98600006103516 102.1709976196289,72.47100067138672 97.96199798583984,73.3489990234375 C97.96199798583984,73.3489990234375 90.41600036621094,74.9229965209961 90.41600036621094,74.9229965209961 C87.66000366210938,75.49800109863281 84.98400115966797,73.63600158691406 84.56800079345703,70.85099792480469 C84.56800079345703,70.85099792480469 83.4280014038086,63.22700119018555 83.4280014038086,63.22700119018555z"/></g></g><g mask="url(#__lottie_element_612_1)" style="display: block;"><g transform="matrix(0.9925461411476135,0.12186934053897858,-0.12186934053897858,0.9925461411476135,566.1124877929688,527.8607177734375)" opacity="1"><g opacity="1" transform="matrix(1,0,0,1,0,0)"><path stroke-linecap="round" stroke-linejoin="miter" fill-opacity="0" stroke-miterlimit="4" stroke="rgb(0,166,224)" stroke-opacity="1" stroke-width="33" d=" M124.24700164794922,167.8489990234375 C124.24700164794922,167.8489990234375 159.5850067138672,202.04600524902344 159.5850067138672,202.04600524902344 C159.5850067138672,202.04600524902344 121.44599914550781,238.5919952392578 121.44599914550781,238.5919952392578 C121.44599914550781,238.5919952392578 90.57499694824219,203.66000366210938 90.57499694824219,203.66000366210938"/></g></g></g><g transform="matrix(0.9925461411476135,0.12186934053897858,-0.12186934053897858,0.9925461411476135,566.1124877929688,527.8607177734375)" opacity="1" style="display: block;"><path stroke-linecap="round" stroke-linejoin="round" fill-opacity="0" stroke="rgb(0,189,255)" stroke-opacity="1" stroke-width="28" d=" M-32.80400085449219,190.0989990234375 C-32.80400085449219,190.0989990234375 -65.49500274658203,187.30599975585938 -65.49500274658203,187.30599975585938"/></g><g mask="url(#__lottie_element_603_1)" style="display: block;"><g transform="matrix(0.9876883029937744,-0.15643446147441864,0.15643446147441864,0.9876883029937744,494.94110107421875,526.9152221679688)" opacity="1"><g opacity="0" transform="matrix(1,0,0,1,-56.845001220703125,236.06199645996094)"><path fill="rgb(249,94,134)" fill-opacity="1" d=" M56.64350128173828,-89.97049713134766 C56.64350128173828,-89.97049713134766 56.64350128173828,89.97049713134766 56.64350128173828,89.97049713134766 C56.64350128173828,89.97049713134766 -56.64350128173828,89.97049713134766 -56.64350128173828,89.97049713134766 C-56.64350128173828,89.97049713134766 -56.64350128173828,-89.97049713134766 -56.64350128173828,-89.97049713134766 C-56.64350128173828,-89.97049713134766 56.64350128173828,-89.97049713134766 56.64350128173828,-89.97049713134766z"/></g><path stroke-linecap="round" stroke-linejoin="round" fill-opacity="0" stroke="rgb(0,166,224)" stroke-opacity="1" stroke-width="0" d=" M-19.04400062561035,218.55299377441406 C-19.04400062561035,218.55299377441406 -50.625,227.44700622558594 -50.625,227.44700622558594"/><g opacity="1" transform="matrix(1,0,0,1,0,0)"><path stroke-linecap="round" stroke-linejoin="round" fill-opacity="0" stroke="rgb(0,189,255)" stroke-opacity="1" stroke-width="28" d=" M-19.04400062561035,218.55299377441406 C-19.04400062561035,218.55299377441406 -50.625,227.44700622558594 -50.625,227.44700622558594"/></g></g></g><g transform="matrix(1,0,0,1,540,540)" opacity="1" style="display: block;"><path stroke-linecap="round" stroke-linejoin="miter" fill-opacity="0" stroke-miterlimit="10" stroke="rgb(255,203,163)" stroke-opacity="1" stroke-width="25" d=" M142.7779998779297,197.2209930419922 C142.7779998779297,197.2209930419922 131.06300354003906,191.43099975585938 120.71499633789062,177.50399780273438 M130.28799438476562,208.9199981689453 C130.28799438476562,208.9199981689453 109.35800170898438,229.8249969482422 79.10199737548828,237.7570037841797 M131.74600219726562,249.34100341796875 C131.74600219726562,249.34100341796875 118.93599700927734,256.2799987792969 88.47799682617188,249.16200256347656"/></g><g transform="matrix(1,0,0,1,540,540)" opacity="1" style="display: block;"><path stroke-linecap="round" stroke-linejoin="miter" fill-opacity="0" stroke-miterlimit="10" stroke="rgb(255,177,0)" stroke-opacity="1" stroke-width="70" d=" M-186.4929962158203,105.14700317382812 C-180.85800170898438,110.28500366210938 -156.82699584960938,129.28500366210938 -107.12100219726562,134.97300720214844"/></g><g transform="matrix(1,0,0,1,540,540)" opacity="1" style="display: block;"><g opacity="1" transform="matrix(1,0,0,1,0,0)"><path fill="rgb(255,203,163)" fill-opacity="1" d=" M-40.801998138427734,138.0260009765625 C-42.53300094604492,114.37300109863281 -63.11000061035156,96.60299682617188 -86.76300048828125,98.33399963378906 C-110.41600036621094,100.06500244140625 -128.18699645996094,120.64199829101562 -126.45600128173828,144.2949981689453 C-124.7249984741211,167.947998046875 -104.14700317382812,185.718994140625 -80.49400329589844,183.98800659179688 C-56.840999603271484,182.2570037841797 -39.07099914550781,161.6790008544922 -40.801998138427734,138.0260009765625z"/></g><g opacity="1" transform="matrix(1,0,0,1,0,0)"><path stroke-linecap="round" stroke-linejoin="miter" fill-opacity="0" stroke-miterlimit="10" stroke="rgb(255,203,163)" stroke-opacity="1" stroke-width="25" d=" M-84.75599670410156,120.3280029296875 C-84.75599670410156,120.3280029296875 -70.05999755859375,125.83200073242188 -64,142.94400024414062 M-97.75599670410156,127.3280029296875 C-97.75599670410156,127.3280029296875 -83.05999755859375,132.83200073242188 -77,149.94400024414062 M-110.75599670410156,134.3280029296875 C-110.75599670410156,134.3280029296875 -96.05999755859375,139.83200073242188 -90,156.94400024414062 M-69.75599670410156,113.3280029296875 C-69.75599670410156,113.3280029296875 -39.3390007019043,124.72000122070312 -26.797000885009766,160.13699340820312"/></g></g><g style="display: none;"><path stroke-linecap="round" stroke-linejoin="round" fill-opacity="0"/></g><g style="display: none;"><g><path/></g><g><path/></g></g><g mask="url(#__lottie_element_582_1)" style="display: none;"><g><path/><g><path/></g><g><path/></g></g></g><g transform="matrix(0.9925461411476135,0.12186934053897858,-0.12186934053897858,0.9925461411476135,566.1124877929688,527.8607177734375)" opacity="1" style="display: block;"><path stroke-linecap="round" stroke-linejoin="round" fill-opacity="0" stroke="rgb(0,189,255)" stroke-opacity="1" stroke-width="28" d=" M26.66699981689453,99.56199645996094 C26.66699981689453,99.56199645996094 -6.142000198364258,99.37899780273438 -6.142000198364258,99.37899780273438"/></g><g mask="url(#__lottie_element_567_1)" style="display: block;"><g transform="matrix(0.9925461411476135,0.12186934053897858,-0.12186934053897858,0.9925461411476135,566.1124877929688,527.8607177734375)" opacity="1"><g opacity="0" transform="matrix(1,0,0,1,28.888999938964844,137.10699462890625)"><path fill="rgb(249,94,134)" fill-opacity="1" d=" M56.64350128173828,-89.97049713134766 C56.64350128173828,-89.97049713134766 56.64350128173828,89.97049713134766 56.64350128173828,89.97049713134766 C56.64350128173828,89.97049713134766 -56.64350128173828,89.97049713134766 -56.64350128173828,89.97049713134766 C-56.64350128173828,89.97049713134766 -56.64350128173828,-89.97049713134766 -56.64350128173828,-89.97049713134766 C-56.64350128173828,-89.97049713134766 56.64350128173828,-89.97049713134766 56.64350128173828,-89.97049713134766z"/></g><path stroke-linecap="round" stroke-linejoin="round" fill-opacity="0" stroke="rgb(0,166,224)" stroke-opacity="1" stroke-width="42" d=" M64.28800201416016,143.63900756835938 C64.28800201416016,143.63900756835938 31.7450008392334,139.46600341796875 31.7450008392334,139.46600341796875"/><g opacity="1" transform="matrix(1,0,0,1,0,0)"><path stroke-linecap="round" stroke-linejoin="round" fill-opacity="0" stroke="rgb(0,189,255)" stroke-opacity="1" stroke-width="28" d=" M64.28800201416016,143.63900756835938 C64.28800201416016,143.63900756835938 31.7450008392334,139.46600341796875 31.7450008392334,139.46600341796875"/></g></g></g></g></svg>